ISO-10303-21;
HEADER;
/* Generated by software containing ST-Developer
 * from STEP Tools, Inc. (www.steptools.com) 
 */

FILE_DESCRIPTION(
/* description */ (''),
/* implementation_level */ '2;1');

FILE_NAME(
/* name */ 'pomodoro-cube-back.step',
/* time_stamp */ '2026-09-30T18:16:23-05:00',
/* author */ (''),
/* organization */ (''),
/* preprocessor_version */ 'ST-DEVELOPER v20.1',
/* originating_system */ 'Autodesk Translation Framework v15.8.0.0',
/* authorisation */ '');

FILE_SCHEMA (('AUTOMOTIVE_DESIGN { 1 0 10303 214 3 1 1 }'));
ENDSEC;

DATA;
#10=MECHANICAL_DESIGN_GEOMETRIC_PRESENTATION_REPRESENTATION('',(#13),#459);
#11=SHAPE_REPRESENTATION_RELATIONSHIP('SRR','None',#466,#12);
#12=ADVANCED_BREP_SHAPE_REPRESENTATION('',(#14),#458);
#13=STYLED_ITEM('',(#475),#14);
#14=MANIFOLD_SOLID_BREP('Back',#251);
#15=FACE_BOUND('',#54,.T.);
#16=FACE_BOUND('',#55,.T.);
#17=FACE_BOUND('',#57,.T.);
#18=FACE_BOUND('',#58,.T.);
#19=FACE_BOUND('',#60,.T.);
#20=FACE_BOUND('',#64,.T.);
#21=PLANE('',#285);
#22=PLANE('',#288);
#23=PLANE('',#291);
#24=PLANE('',#296);
#25=SPHERICAL_SURFACE('',#271,3.);
#26=SPHERICAL_SURFACE('',#276,3.);
#27=SPHERICAL_SURFACE('',#281,3.);
#28=SPHERICAL_SURFACE('',#283,3.);
#29=FACE_OUTER_BOUND('',#45,.T.);
#30=FACE_OUTER_BOUND('',#46,.T.);
#31=FACE_OUTER_BOUND('',#47,.T.);
#32=FACE_OUTER_BOUND('',#48,.T.);
#33=FACE_OUTER_BOUND('',#49,.T.);
#34=FACE_OUTER_BOUND('',#50,.T.);
#35=FACE_OUTER_BOUND('',#51,.T.);
#36=FACE_OUTER_BOUND('',#52,.T.);
#37=FACE_OUTER_BOUND('',#53,.T.);
#38=FACE_OUTER_BOUND('',#56,.T.);
#39=FACE_OUTER_BOUND('',#59,.T.);
#40=FACE_OUTER_BOUND('',#61,.T.);
#41=FACE_OUTER_BOUND('',#62,.T.);
#42=FACE_OUTER_BOUND('',#63,.T.);
#43=FACE_OUTER_BOUND('',#65,.T.);
#44=FACE_OUTER_BOUND('',#66,.T.);
#45=EDGE_LOOP('',(#163,#164,#165,#166));
#46=EDGE_LOOP('',(#167,#168,#169,#170));
#47=EDGE_LOOP('',(#171,#172,#173));
#48=EDGE_LOOP('',(#174,#175,#176,#177));
#49=EDGE_LOOP('',(#178,#179,#180));
#50=EDGE_LOOP('',(#181,#182,#183,#184));
#51=EDGE_LOOP('',(#185,#186,#187));
#52=EDGE_LOOP('',(#188,#189,#190));
#53=EDGE_LOOP('',(#191,#192,#193,#194));
#54=EDGE_LOOP('',(#195));
#55=EDGE_LOOP('',(#196));
#56=EDGE_LOOP('',(#197,#198,#199,#200,#201,#202,#203,#204));
#57=EDGE_LOOP('',(#205));
#58=EDGE_LOOP('',(#206));
#59=EDGE_LOOP('',(#207));
#60=EDGE_LOOP('',(#208));
#61=EDGE_LOOP('',(#209,#210,#211,#212));
#62=EDGE_LOOP('',(#213,#214,#215,#216));
#63=EDGE_LOOP('',(#217));
#64=EDGE_LOOP('',(#218));
#65=EDGE_LOOP('',(#219,#220,#221,#222));
#66=EDGE_LOOP('',(#223,#224,#225,#226));
#67=LINE('',#393,#79);
#68=LINE('',#396,#80);
#69=LINE('',#402,#81);
#70=LINE('',#404,#82);
#71=LINE('',#412,#83);
#72=LINE('',#414,#84);
#73=LINE('',#421,#85);
#74=LINE('',#423,#86);
#75=LINE('',#444,#87);
#76=LINE('',#446,#88);
#77=LINE('',#453,#89);
#78=LINE('',#455,#90);
#79=VECTOR('',#307,10.);
#80=VECTOR('',#310,10.);
#81=VECTOR('',#315,10.);
#82=VECTOR('',#318,10.);
#83=VECTOR('',#327,10.);
#84=VECTOR('',#330,10.);
#85=VECTOR('',#339,10.);
#86=VECTOR('',#342,10.);
#87=VECTOR('',#371,2.2);
#88=VECTOR('',#374,1.15);
#89=VECTOR('',#383,2.2);
#90=VECTOR('',#386,1.15);
#91=CIRCLE('',#266,3.);
#92=CIRCLE('',#267,3.);
#93=CIRCLE('',#269,3.);
#94=CIRCLE('',#270,3.);
#95=CIRCLE('',#272,3.);
#96=CIRCLE('',#274,3.);
#97=CIRCLE('',#275,3.);
#98=CIRCLE('',#277,3.);
#99=CIRCLE('',#279,3.);
#100=CIRCLE('',#280,3.);
#101=CIRCLE('',#282,3.);
#102=CIRCLE('',#284,3.);
#103=CIRCLE('',#286,2.2);
#104=CIRCLE('',#287,2.2);
#105=CIRCLE('',#289,1.15);
#106=CIRCLE('',#290,1.15);
#107=CIRCLE('',#292,2.2);
#108=CIRCLE('',#293,1.15);
#109=CIRCLE('',#297,2.2);
#110=CIRCLE('',#298,1.15);
#111=VERTEX_POINT('',#389);
#112=VERTEX_POINT('',#390);
#113=VERTEX_POINT('',#392);
#114=VERTEX_POINT('',#394);
#115=VERTEX_POINT('',#398);
#116=VERTEX_POINT('',#399);
#117=VERTEX_POINT('',#401);
#118=VERTEX_POINT('',#408);
#119=VERTEX_POINT('',#409);
#120=VERTEX_POINT('',#411);
#121=VERTEX_POINT('',#418);
#122=VERTEX_POINT('',#420);
#123=VERTEX_POINT('',#429);
#124=VERTEX_POINT('',#431);
#125=VERTEX_POINT('',#434);
#126=VERTEX_POINT('',#436);
#127=VERTEX_POINT('',#439);
#128=VERTEX_POINT('',#441);
#129=VERTEX_POINT('',#448);
#130=VERTEX_POINT('',#450);
#131=EDGE_CURVE('',#111,#112,#91,.T.);
#132=EDGE_CURVE('',#112,#113,#67,.T.);
#133=EDGE_CURVE('',#113,#114,#92,.T.);
#134=EDGE_CURVE('',#114,#111,#68,.T.);
#135=EDGE_CURVE('',#115,#116,#93,.T.);
#136=EDGE_CURVE('',#116,#117,#69,.T.);
#137=EDGE_CURVE('',#117,#111,#94,.T.);
#138=EDGE_CURVE('',#111,#115,#70,.T.);
#139=EDGE_CURVE('',#117,#112,#95,.T.);
#140=EDGE_CURVE('',#118,#119,#96,.T.);
#141=EDGE_CURVE('',#119,#120,#71,.T.);
#142=EDGE_CURVE('',#120,#115,#97,.T.);
#143=EDGE_CURVE('',#115,#118,#72,.T.);
#144=EDGE_CURVE('',#120,#116,#98,.T.);
#145=EDGE_CURVE('',#114,#121,#99,.T.);
#146=EDGE_CURVE('',#121,#122,#73,.T.);
#147=EDGE_CURVE('',#122,#118,#100,.T.);
#148=EDGE_CURVE('',#118,#114,#74,.T.);
#149=EDGE_CURVE('',#122,#119,#101,.T.);
#150=EDGE_CURVE('',#113,#121,#102,.T.);
#151=EDGE_CURVE('',#123,#123,#103,.T.);
#152=EDGE_CURVE('',#124,#124,#104,.T.);
#153=EDGE_CURVE('',#125,#125,#105,.T.);
#154=EDGE_CURVE('',#126,#126,#106,.T.);
#155=EDGE_CURVE('',#127,#127,#107,.T.);
#156=EDGE_CURVE('',#128,#128,#108,.T.);
#157=EDGE_CURVE('',#124,#127,#75,.T.);
#158=EDGE_CURVE('',#128,#125,#76,.T.);
#159=EDGE_CURVE('',#129,#129,#109,.T.);
#160=EDGE_CURVE('',#130,#130,#110,.T.);
#161=EDGE_CURVE('',#123,#129,#77,.T.);
#162=EDGE_CURVE('',#130,#126,#78,.T.);
#163=ORIENTED_EDGE('',*,*,#131,.T.);
#164=ORIENTED_EDGE('',*,*,#132,.T.);
#165=ORIENTED_EDGE('',*,*,#133,.T.);
#166=ORIENTED_EDGE('',*,*,#134,.T.);
#167=ORIENTED_EDGE('',*,*,#135,.T.);
#168=ORIENTED_EDGE('',*,*,#136,.T.);
#169=ORIENTED_EDGE('',*,*,#137,.T.);
#170=ORIENTED_EDGE('',*,*,#138,.T.);
#171=ORIENTED_EDGE('',*,*,#137,.F.);
#172=ORIENTED_EDGE('',*,*,#139,.T.);
#173=ORIENTED_EDGE('',*,*,#131,.F.);
#174=ORIENTED_EDGE('',*,*,#140,.T.);
#175=ORIENTED_EDGE('',*,*,#141,.T.);
#176=ORIENTED_EDGE('',*,*,#142,.T.);
#177=ORIENTED_EDGE('',*,*,#143,.T.);
#178=ORIENTED_EDGE('',*,*,#142,.F.);
#179=ORIENTED_EDGE('',*,*,#144,.T.);
#180=ORIENTED_EDGE('',*,*,#135,.F.);
#181=ORIENTED_EDGE('',*,*,#145,.T.);
#182=ORIENTED_EDGE('',*,*,#146,.T.);
#183=ORIENTED_EDGE('',*,*,#147,.T.);
#184=ORIENTED_EDGE('',*,*,#148,.T.);
#185=ORIENTED_EDGE('',*,*,#147,.F.);
#186=ORIENTED_EDGE('',*,*,#149,.T.);
#187=ORIENTED_EDGE('',*,*,#140,.F.);
#188=ORIENTED_EDGE('',*,*,#133,.F.);
#189=ORIENTED_EDGE('',*,*,#150,.T.);
#190=ORIENTED_EDGE('',*,*,#145,.F.);
#191=ORIENTED_EDGE('',*,*,#134,.F.);
#192=ORIENTED_EDGE('',*,*,#148,.F.);
#193=ORIENTED_EDGE('',*,*,#143,.F.);
#194=ORIENTED_EDGE('',*,*,#138,.F.);
#195=ORIENTED_EDGE('',*,*,#151,.T.);
#196=ORIENTED_EDGE('',*,*,#152,.T.);
#197=ORIENTED_EDGE('',*,*,#144,.F.);
#198=ORIENTED_EDGE('',*,*,#141,.F.);
#199=ORIENTED_EDGE('',*,*,#149,.F.);
#200=ORIENTED_EDGE('',*,*,#146,.F.);
#201=ORIENTED_EDGE('',*,*,#150,.F.);
#202=ORIENTED_EDGE('',*,*,#132,.F.);
#203=ORIENTED_EDGE('',*,*,#139,.F.);
#204=ORIENTED_EDGE('',*,*,#136,.F.);
#205=ORIENTED_EDGE('',*,*,#153,.T.);
#206=ORIENTED_EDGE('',*,*,#154,.T.);
#207=ORIENTED_EDGE('',*,*,#155,.F.);
#208=ORIENTED_EDGE('',*,*,#156,.T.);
#209=ORIENTED_EDGE('',*,*,#152,.F.);
#210=ORIENTED_EDGE('',*,*,#157,.T.);
#211=ORIENTED_EDGE('',*,*,#155,.T.);
#212=ORIENTED_EDGE('',*,*,#157,.F.);
#213=ORIENTED_EDGE('',*,*,#156,.F.);
#214=ORIENTED_EDGE('',*,*,#158,.T.);
#215=ORIENTED_EDGE('',*,*,#153,.F.);
#216=ORIENTED_EDGE('',*,*,#158,.F.);
#217=ORIENTED_EDGE('',*,*,#159,.F.);
#218=ORIENTED_EDGE('',*,*,#160,.T.);
#219=ORIENTED_EDGE('',*,*,#151,.F.);
#220=ORIENTED_EDGE('',*,*,#161,.T.);
#221=ORIENTED_EDGE('',*,*,#159,.T.);
#222=ORIENTED_EDGE('',*,*,#161,.F.);
#223=ORIENTED_EDGE('',*,*,#160,.F.);
#224=ORIENTED_EDGE('',*,*,#162,.T.);
#225=ORIENTED_EDGE('',*,*,#154,.F.);
#226=ORIENTED_EDGE('',*,*,#162,.F.);
#227=CYLINDRICAL_SURFACE('',#265,3.);
#228=CYLINDRICAL_SURFACE('',#268,3.);
#229=CYLINDRICAL_SURFACE('',#273,3.);
#230=CYLINDRICAL_SURFACE('',#278,3.);
#231=CYLINDRICAL_SURFACE('',#294,2.2);
#232=CYLINDRICAL_SURFACE('',#295,1.15);
#233=CYLINDRICAL_SURFACE('',#299,2.2);
#234=CYLINDRICAL_SURFACE('',#300,1.15);
#235=ADVANCED_FACE('',(#29),#227,.T.);
#236=ADVANCED_FACE('',(#30),#228,.T.);
#237=ADVANCED_FACE('',(#31),#25,.T.);
#238=ADVANCED_FACE('',(#32),#229,.T.);
#239=ADVANCED_FACE('',(#33),#26,.T.);
#240=ADVANCED_FACE('',(#34),#230,.T.);
#241=ADVANCED_FACE('',(#35),#27,.T.);
#242=ADVANCED_FACE('',(#36),#28,.T.);
#243=ADVANCED_FACE('',(#37,#15,#16),#21,.T.);
#244=ADVANCED_FACE('',(#38,#17,#18),#22,.F.);
#245=ADVANCED_FACE('',(#39,#19),#23,.F.);
#246=ADVANCED_FACE('',(#40),#231,.F.);
#247=ADVANCED_FACE('',(#41),#232,.F.);
#248=ADVANCED_FACE('',(#42,#20),#24,.F.);
#249=ADVANCED_FACE('',(#43),#233,.F.);
#250=ADVANCED_FACE('',(#44),#234,.F.);
#251=CLOSED_SHELL('',(#235,#236,#237,#238,#239,#240,#241,#242,#243,#244,
#245,#246,#247,#248,#249,#250));
#252=DERIVED_UNIT_ELEMENT(#254,1.);
#253=DERIVED_UNIT_ELEMENT(#461,-3.);
#254=(
MASS_UNIT()
NAMED_UNIT(*)
SI_UNIT(.KILO.,.GRAM.)
);
#255=DERIVED_UNIT((#252,#253));
#256=MEASURE_REPRESENTATION_ITEM('density measure',
POSITIVE_RATIO_MEASURE(7850.),#255);
#257=PROPERTY_DEFINITION_REPRESENTATION(#262,#259);
#258=PROPERTY_DEFINITION_REPRESENTATION(#263,#260);
#259=REPRESENTATION('material name',(#261),#458);
#260=REPRESENTATION('density',(#256),#458);
#261=DESCRIPTIVE_REPRESENTATION_ITEM('Steel','Steel');
#262=PROPERTY_DEFINITION('material property','material name',#468);
#263=PROPERTY_DEFINITION('material property','density of part',#468);
#264=AXIS2_PLACEMENT_3D('',#387,#301,#302);
#265=AXIS2_PLACEMENT_3D('',#388,#303,#304);
#266=AXIS2_PLACEMENT_3D('',#391,#305,#306);
#267=AXIS2_PLACEMENT_3D('',#395,#308,#309);
#268=AXIS2_PLACEMENT_3D('',#397,#311,#312);
#269=AXIS2_PLACEMENT_3D('',#400,#313,#314);
#270=AXIS2_PLACEMENT_3D('',#403,#316,#317);
#271=AXIS2_PLACEMENT_3D('',#405,#319,#320);
#272=AXIS2_PLACEMENT_3D('',#406,#321,#322);
#273=AXIS2_PLACEMENT_3D('',#407,#323,#324);
#274=AXIS2_PLACEMENT_3D('',#410,#325,#326);
#275=AXIS2_PLACEMENT_3D('',#413,#328,#329);
#276=AXIS2_PLACEMENT_3D('',#415,#331,#332);
#277=AXIS2_PLACEMENT_3D('',#416,#333,#334);
#278=AXIS2_PLACEMENT_3D('',#417,#335,#336);
#279=AXIS2_PLACEMENT_3D('',#419,#337,#338);
#280=AXIS2_PLACEMENT_3D('',#422,#340,#341);
#281=AXIS2_PLACEMENT_3D('',#424,#343,#344);
#282=AXIS2_PLACEMENT_3D('',#425,#345,#346);
#283=AXIS2_PLACEMENT_3D('',#426,#347,#348);
#284=AXIS2_PLACEMENT_3D('',#427,#349,#350);
#285=AXIS2_PLACEMENT_3D('',#428,#351,#352);
#286=AXIS2_PLACEMENT_3D('',#430,#353,#354);
#287=AXIS2_PLACEMENT_3D('',#432,#355,#356);
#288=AXIS2_PLACEMENT_3D('',#433,#357,#358);
#289=AXIS2_PLACEMENT_3D('',#435,#359,#360);
#290=AXIS2_PLACEMENT_3D('',#437,#361,#362);
#291=AXIS2_PLACEMENT_3D('',#438,#363,#364);
#292=AXIS2_PLACEMENT_3D('',#440,#365,#366);
#293=AXIS2_PLACEMENT_3D('',#442,#367,#368);
#294=AXIS2_PLACEMENT_3D('',#443,#369,#370);
#295=AXIS2_PLACEMENT_3D('',#445,#372,#373);
#296=AXIS2_PLACEMENT_3D('',#447,#375,#376);
#297=AXIS2_PLACEMENT_3D('',#449,#377,#378);
#298=AXIS2_PLACEMENT_3D('',#451,#379,#380);
#299=AXIS2_PLACEMENT_3D('',#452,#381,#382);
#300=AXIS2_PLACEMENT_3D('',#454,#384,#385);
#301=DIRECTION('axis',(0.,0.,1.));
#302=DIRECTION('refdir',(1.,0.,0.));
#303=DIRECTION('center_axis',(-9.88842595969857E-17,1.,-1.22464679914735E-16));
#304=DIRECTION('ref_axis',(0.707106781186549,8.65956056235492E-17,0.707106781186546));
#305=DIRECTION('center_axis',(0.,1.,-1.22464679914735E-16));
#306=DIRECTION('ref_axis',(0.,1.22464679914735E-16,1.));
#307=DIRECTION('',(-9.88842595969857E-17,1.,-1.22464679914735E-16));
#308=DIRECTION('center_axis',(0.,-1.,1.22464679914735E-16));
#309=DIRECTION('ref_axis',(1.,0.,0.));
#310=DIRECTION('',(9.88842595969857E-17,-1.,1.22464679914735E-16));
#311=DIRECTION('center_axis',(1.,-1.97768519193971E-16,2.42196584003009E-32));
#312=DIRECTION('ref_axis',(0.,-0.707106781186547,0.707106781186548));
#313=DIRECTION('center_axis',(1.,0.,0.));
#314=DIRECTION('ref_axis',(0.,1.22464679914735E-16,1.));
#315=DIRECTION('',(1.,-1.97768519193971E-16,2.42196584003009E-32));
#316=DIRECTION('center_axis',(-1.,0.,0.));
#317=DIRECTION('ref_axis',(0.,-1.,1.22464679914735E-16));
#318=DIRECTION('',(-1.,1.97768519193971E-16,-2.42196584003009E-32));
#319=DIRECTION('center_axis',(-0.816496580927726,-0.408248290463863,0.408248290463862));
#320=DIRECTION('ref_axis',(0.577350269189625,-0.577350269189626,0.577350269189626));
#321=DIRECTION('center_axis',(0.,1.22464679914735E-16,1.));
#322=DIRECTION('ref_axis',(0.707106781186547,-0.707106781186548,8.65956056235494E-17));
#323=DIRECTION('center_axis',(9.88842595969857E-17,-1.,1.22464679914735E-16));
#324=DIRECTION('ref_axis',(-0.707106781186547,8.65956056235493E-17,0.707106781186547));
#325=DIRECTION('center_axis',(0.,-1.,1.22464679914735E-16));
#326=DIRECTION('ref_axis',(0.,1.22464679914735E-16,1.));
#327=DIRECTION('',(9.88842595969857E-17,-1.,1.22464679914735E-16));
#328=DIRECTION('center_axis',(0.,1.,-1.22464679914735E-16));
#329=DIRECTION('ref_axis',(-1.,0.,0.));
#330=DIRECTION('',(-9.88842595969857E-17,1.,-1.22464679914735E-16));
#331=DIRECTION('center_axis',(-0.816496580927726,0.408248290463863,-0.408248290463863));
#332=DIRECTION('ref_axis',(-0.577350269189626,-0.577350269189626,0.577350269189625));
#333=DIRECTION('center_axis',(0.,1.22464679914735E-16,1.));
#334=DIRECTION('ref_axis',(-0.707106781186547,-0.707106781186547,8.65956056235493E-17));
#335=DIRECTION('center_axis',(-1.,-1.97768519193971E-16,2.42196584003009E-32));
#336=DIRECTION('ref_axis',(0.,0.707106781186548,0.707106781186547));
#337=DIRECTION('center_axis',(-1.,0.,0.));
#338=DIRECTION('ref_axis',(0.,1.22464679914735E-16,1.));
#339=DIRECTION('',(-1.,-1.97768519193971E-16,2.42196584003009E-32));
#340=DIRECTION('center_axis',(1.,-7.40148683083438E-16,9.06420715631261E-32));
#341=DIRECTION('ref_axis',(7.40148683083438E-16,1.,-1.22464679914735E-16));
#342=DIRECTION('',(1.,1.97768519193971E-16,-2.42196584003009E-32));
#343=DIRECTION('center_axis',(0.408248290463863,-0.408248290463863,0.816496580927726));
#344=DIRECTION('ref_axis',(-0.577350269189626,0.577350269189626,0.577350269189625));
#345=DIRECTION('center_axis',(0.,1.22464679914735E-16,1.));
#346=DIRECTION('ref_axis',(-0.707106781186548,0.707106781186547,-8.65956056235493E-17));
#347=DIRECTION('center_axis',(-0.816496580927726,0.408248290463863,0.408248290463863));
#348=DIRECTION('ref_axis',(0.577350269189626,0.577350269189626,0.577350269189625));
#349=DIRECTION('center_axis',(0.,1.22464679914735E-16,1.));
#350=DIRECTION('ref_axis',(0.707106781186547,0.707106781186547,-8.65956056235493E-17));
#351=DIRECTION('center_axis',(0.,1.22464679914735E-16,1.));
#352=DIRECTION('ref_axis',(-1.,0.,0.));
#353=DIRECTION('center_axis',(0.,-1.22464679914735E-16,-1.));
#354=DIRECTION('ref_axis',(-1.,0.,0.));
#355=DIRECTION('center_axis',(0.,-1.22464679914735E-16,-1.));
#356=DIRECTION('ref_axis',(-1.,0.,0.));
#357=DIRECTION('center_axis',(0.,1.22464679914735E-16,1.));
#358=DIRECTION('ref_axis',(1.,0.,0.));
#359=DIRECTION('center_axis',(0.,1.22464679914735E-16,1.));
#360=DIRECTION('ref_axis',(-1.,0.,0.));
#361=DIRECTION('center_axis',(0.,1.22464679914735E-16,1.));
#362=DIRECTION('ref_axis',(-1.,0.,0.));
#363=DIRECTION('center_axis',(0.,-1.22464679914735E-16,-1.));
#364=DIRECTION('ref_axis',(-1.,0.,0.));
#365=DIRECTION('center_axis',(0.,-1.22464679914735E-16,-1.));
#366=DIRECTION('ref_axis',(-1.,0.,0.));
#367=DIRECTION('center_axis',(0.,-1.22464679914735E-16,-1.));
#368=DIRECTION('ref_axis',(-1.,0.,0.));
#369=DIRECTION('center_axis',(0.,-1.22464679914735E-16,-1.));
#370=DIRECTION('ref_axis',(-1.,0.,0.));
#371=DIRECTION('',(0.,-1.22464679914735E-16,-1.));
#372=DIRECTION('center_axis',(0.,-1.22464679914735E-16,-1.));
#373=DIRECTION('ref_axis',(-1.,0.,0.));
#374=DIRECTION('',(0.,-1.22464679914735E-16,-1.));
#375=DIRECTION('center_axis',(0.,-1.22464679914735E-16,-1.));
#376=DIRECTION('ref_axis',(-1.,0.,0.));
#377=DIRECTION('center_axis',(0.,-1.22464679914735E-16,-1.));
#378=DIRECTION('ref_axis',(-1.,0.,0.));
#379=DIRECTION('center_axis',(0.,-1.22464679914735E-16,-1.));
#380=DIRECTION('ref_axis',(-1.,0.,0.));
#381=DIRECTION('center_axis',(0.,-1.22464679914735E-16,-1.));
#382=DIRECTION('ref_axis',(-1.,0.,0.));
#383=DIRECTION('',(0.,-1.22464679914735E-16,-1.));
#384=DIRECTION('center_axis',(0.,-1.22464679914735E-16,-1.));
#385=DIRECTION('ref_axis',(-1.,0.,0.));
#386=DIRECTION('',(0.,-1.22464679914735E-16,-1.));
#387=CARTESIAN_POINT('',(0.,0.,0.));
#388=CARTESIAN_POINT('Origin',(19.455,-11.2275,-4.44089209850063E-15));
#389=CARTESIAN_POINT('',(19.455,-19.455,3.));
#390=CARTESIAN_POINT('',(22.455,-19.455,0.));
#391=CARTESIAN_POINT('Origin',(19.455,-19.455,0.));
#392=CARTESIAN_POINT('',(22.455,19.455,-8.88178419700125E-15));
#393=CARTESIAN_POINT('',(22.455,-22.455,0.));
#394=CARTESIAN_POINT('',(19.455,19.455,2.99999999999999));
#395=CARTESIAN_POINT('Origin',(19.455,19.455,-8.88178419700125E-15));
#396=CARTESIAN_POINT('',(19.455,-11.2275,2.99999999999999));
#397=CARTESIAN_POINT('Origin',(-11.2275,-19.455,0.));
#398=CARTESIAN_POINT('',(-19.455,-19.455,3.));
#399=CARTESIAN_POINT('',(-19.455,-22.455,0.));
#400=CARTESIAN_POINT('Origin',(-19.455,-19.455,0.));
#401=CARTESIAN_POINT('',(19.455,-22.455,0.));
#402=CARTESIAN_POINT('',(-22.455,-22.455,0.));
#403=CARTESIAN_POINT('Origin',(19.455,-19.455,0.));
#404=CARTESIAN_POINT('',(-11.2275,-19.455,3.));
#405=CARTESIAN_POINT('Origin',(19.455,-19.455,0.));
#406=CARTESIAN_POINT('Origin',(19.455,-19.455,0.));
#407=CARTESIAN_POINT('Origin',(-19.455,11.2275,-4.44089209850063E-15));
#408=CARTESIAN_POINT('',(-19.455,19.455,2.99999999999999));
#409=CARTESIAN_POINT('',(-22.455,19.455,-8.88178419700125E-15));
#410=CARTESIAN_POINT('Origin',(-19.455,19.455,-8.88178419700125E-15));
#411=CARTESIAN_POINT('',(-22.455,-19.455,0.));
#412=CARTESIAN_POINT('',(-22.455,22.455,-8.88178419700125E-15));
#413=CARTESIAN_POINT('Origin',(-19.455,-19.455,0.));
#414=CARTESIAN_POINT('',(-19.455,11.2275,2.99999999999999));
#415=CARTESIAN_POINT('Origin',(-19.455,-19.455,0.));
#416=CARTESIAN_POINT('Origin',(-19.455,-19.455,0.));
#417=CARTESIAN_POINT('Origin',(11.2275,19.455,-8.88178419700125E-15));
#418=CARTESIAN_POINT('',(19.455,22.455,-8.88178419700125E-15));
#419=CARTESIAN_POINT('Origin',(19.455,19.455,-8.88178419700125E-15));
#420=CARTESIAN_POINT('',(-19.455,22.455,-8.88178419700125E-15));
#421=CARTESIAN_POINT('',(22.455,22.455,-8.88178419700125E-15));
#422=CARTESIAN_POINT('Origin',(-19.455,19.455,-8.88178419700125E-15));
#423=CARTESIAN_POINT('',(11.2275,19.455,2.99999999999999));
#424=CARTESIAN_POINT('Origin',(-19.455,19.455,-8.88178419700125E-15));
#425=CARTESIAN_POINT('Origin',(-19.455,19.455,-8.88178419700125E-15));
#426=CARTESIAN_POINT('Origin',(19.455,19.455,-8.88178419700125E-15));
#427=CARTESIAN_POINT('Origin',(19.455,19.455,-8.88178419700125E-15));
#428=CARTESIAN_POINT('Origin',(0.,-4.01871175758711E-15,2.99999999999999));
#429=CARTESIAN_POINT('',(18.655,-16.455,2.99999999999999));
#430=CARTESIAN_POINT('Origin',(16.455,-16.455,2.99999999999999));
#431=CARTESIAN_POINT('',(-14.255,16.455,2.99999999999999));
#432=CARTESIAN_POINT('Origin',(-16.455,16.455,2.99999999999999));
#433=CARTESIAN_POINT('Origin',(0.,-4.38610579733132E-15,-4.44089209850063E-15));
#434=CARTESIAN_POINT('',(-15.305,16.455,-4.44089209850063E-15));
#435=CARTESIAN_POINT('Origin',(-16.455,16.455,-4.44089209850063E-15));
#436=CARTESIAN_POINT('',(17.605,-16.455,-4.44089209850063E-15));
#437=CARTESIAN_POINT('Origin',(16.455,-16.455,-4.44089209850063E-15));
#438=CARTESIAN_POINT('Origin',(-16.455,16.455,1.99999999999999));
#439=CARTESIAN_POINT('',(-14.255,16.455,1.99999999999999));
#440=CARTESIAN_POINT('Origin',(-16.455,16.455,1.99999999999999));
#441=CARTESIAN_POINT('',(-15.305,16.455,1.99999999999999));
#442=CARTESIAN_POINT('Origin',(-16.455,16.455,1.99999999999999));
#443=CARTESIAN_POINT('Origin',(-16.455,16.455,2.5));
#444=CARTESIAN_POINT('',(-14.255,16.455,2.5));
#445=CARTESIAN_POINT('Origin',(-16.455,16.455,-0.500000000000007));
#446=CARTESIAN_POINT('',(-15.305,16.455,-0.500000000000007));
#447=CARTESIAN_POINT('Origin',(16.455,-16.455,1.99999999999999));
#448=CARTESIAN_POINT('',(18.655,-16.455,1.99999999999999));
#449=CARTESIAN_POINT('Origin',(16.455,-16.455,1.99999999999999));
#450=CARTESIAN_POINT('',(17.605,-16.455,1.99999999999999));
#451=CARTESIAN_POINT('Origin',(16.455,-16.455,1.99999999999999));
#452=CARTESIAN_POINT('Origin',(16.455,-16.455,2.5));
#453=CARTESIAN_POINT('',(18.655,-16.455,2.5));
#454=CARTESIAN_POINT('Origin',(16.455,-16.455,-0.500000000000007));
#455=CARTESIAN_POINT('',(17.605,-16.455,-0.500000000000007));
#456=UNCERTAINTY_MEASURE_WITH_UNIT(LENGTH_MEASURE(0.01),#460,
'DISTANCE_ACCURACY_VALUE',
'Maximum model space distance between geometric entities at asserted c
onnectivities');
#457=UNCERTAINTY_MEASURE_WITH_UNIT(LENGTH_MEASURE(0.01),#460,
'DISTANCE_ACCURACY_VALUE',
'Maximum model space distance between geometric entities at asserted c
onnectivities');
#458=(
GEOMETRIC_REPRESENTATION_CONTEXT(3)
GLOBAL_UNCERTAINTY_ASSIGNED_CONTEXT((#456))
GLOBAL_UNIT_ASSIGNED_CONTEXT((#460,#462,#463))
REPRESENTATION_CONTEXT('','3D')
);
#459=(
GEOMETRIC_REPRESENTATION_CONTEXT(3)
GLOBAL_UNCERTAINTY_ASSIGNED_CONTEXT((#457))
GLOBAL_UNIT_ASSIGNED_CONTEXT((#460,#462,#463))
REPRESENTATION_CONTEXT('','3D')
);
#460=(
LENGTH_UNIT()
NAMED_UNIT(*)
SI_UNIT(.MILLI.,.METRE.)
);
#461=(
LENGTH_UNIT()
NAMED_UNIT(*)
SI_UNIT($,.METRE.)
);
#462=(
NAMED_UNIT(*)
PLANE_ANGLE_UNIT()
SI_UNIT($,.RADIAN.)
);
#463=(
NAMED_UNIT(*)
SI_UNIT($,.STERADIAN.)
SOLID_ANGLE_UNIT()
);
#464=SHAPE_DEFINITION_REPRESENTATION(#465,#466);
#465=PRODUCT_DEFINITION_SHAPE('',$,#468);
#466=SHAPE_REPRESENTATION('',(#264),#458);
#467=PRODUCT_DEFINITION_CONTEXT('part definition',#472,'design');
#468=PRODUCT_DEFINITION('Back','Back',#469,#467);
#469=PRODUCT_DEFINITION_FORMATION('',$,#474);
#470=PRODUCT_RELATED_PRODUCT_CATEGORY('Back','Back',(#474));
#471=APPLICATION_PROTOCOL_DEFINITION('international standard',
'automotive_design',2009,#472);
#472=APPLICATION_CONTEXT(
'Core Data for Automotive Mechanical Design Process');
#473=PRODUCT_CONTEXT('part definition',#472,'mechanical');
#474=PRODUCT('Back','Back',$,(#473));
#475=PRESENTATION_STYLE_ASSIGNMENT((#476));
#476=SURFACE_STYLE_USAGE(.BOTH.,#477);
#477=SURFACE_SIDE_STYLE('',(#478));
#478=SURFACE_STYLE_FILL_AREA(#479);
#479=FILL_AREA_STYLE('Steel - Satin',(#480));
#480=FILL_AREA_STYLE_COLOUR('Steel - Satin',#481);
#481=COLOUR_RGB('Steel - Satin',0.627450980392157,0.627450980392157,0.627450980392157);
ENDSEC;
END-ISO-10303-21;
