ISO-10303-21;
HEADER;
/* Generated by software containing ST-Developer
 * from STEP Tools, Inc. (www.steptools.com) 
 */

FILE_DESCRIPTION(
/* description */ (''),
/* implementation_level */ '2;1');

FILE_NAME(
/* name */ 'pomodoro-cube-face.step',
/* time_stamp */ '2026-09-30T18:16:23-05:00',
/* author */ (''),
/* organization */ (''),
/* preprocessor_version */ 'ST-DEVELOPER v20.1',
/* originating_system */ 'Autodesk Translation Framework v15.8.0.0',
/* authorisation */ '');

FILE_SCHEMA (('AUTOMOTIVE_DESIGN { 1 0 10303 214 3 1 1 }'));
ENDSEC;

DATA;
#10=MECHANICAL_DESIGN_GEOMETRIC_PRESENTATION_REPRESENTATION('',(#13),#1399);
#11=SHAPE_REPRESENTATION_RELATIONSHIP('SRR','None',#1406,#12);
#12=ADVANCED_BREP_SHAPE_REPRESENTATION('',(#14),#1398);
#13=STYLED_ITEM('',(#1415),#14);
#14=MANIFOLD_SOLID_BREP('Face',#801);
#15=FACE_BOUND('',#158,.T.);
#16=FACE_BOUND('',#161,.T.);
#17=FACE_BOUND('',#168,.T.);
#18=FACE_BOUND('',#169,.T.);
#19=FACE_BOUND('',#170,.T.);
#20=FACE_BOUND('',#171,.T.);
#21=FACE_BOUND('',#172,.T.);
#22=CONICAL_SURFACE('',#877,0.575,1.02974425867665);
#23=CONICAL_SURFACE('',#881,0.575,1.02974425867665);
#24=SPHERICAL_SURFACE('',#869,3.);
#25=SPHERICAL_SURFACE('',#871,3.);
#26=SPHERICAL_SURFACE('',#873,3.);
#27=SPHERICAL_SURFACE('',#875,3.);
#28=B_SPLINE_CURVE_WITH_KNOTS('',3,(#1249,#1250,#1251,#1252,#1253,#1254,
#1255,#1256,#1257,#1258),.UNSPECIFIED.,.F.,.F.,(4,2,2,2,4),(-0.0038607470891975,
0.,0.305953154547745,0.611906309337896,0.61576705975942),.UNSPECIFIED.);
#29=B_SPLINE_CURVE_WITH_KNOTS('',3,(#1262,#1263,#1264,#1265,#1266,#1267,
#1268,#1269,#1270,#1271),.UNSPECIFIED.,.F.,.F.,(4,2,2,2,4),(-0.00386074704871655,
0.,0.305953154637918,0.611906309271482,0.615767056293481),.UNSPECIFIED.);
#30=B_SPLINE_CURVE_WITH_KNOTS('',3,(#1275,#1276,#1277,#1278,#1279,#1280,
#1281,#1282,#1283,#1284),.UNSPECIFIED.,.F.,.F.,(4,2,2,2,4),(-0.00386074704746051,
0.,0.305953154609189,0.611906309210873,0.615767056253864),.UNSPECIFIED.);
#31=B_SPLINE_CURVE_WITH_KNOTS('',3,(#1288,#1289,#1290,#1291,#1292,#1293),
 .UNSPECIFIED.,.F.,.F.,(4,2,4),(-0.0038607470487313,0.,0.305953154638681),
 .UNSPECIFIED.);
#32=B_SPLINE_CURVE_WITH_KNOTS('',3,(#1298,#1299,#1300,#1301,#1302,#1303),
 .UNSPECIFIED.,.F.,.F.,(4,2,4),(0.305953154638681,0.611906309277353,0.615767056326136),
 .UNSPECIFIED.);
#33=TOROIDAL_SURFACE('',#846,19.7,3.);
#34=CYLINDRICAL_SURFACE('',#820,19.455);
#35=CYLINDRICAL_SURFACE('',#828,19.455);
#36=CYLINDRICAL_SURFACE('',#836,19.455);
#37=CYLINDRICAL_SURFACE('',#843,19.455);
#38=CYLINDRICAL_SURFACE('',#853,3.);
#39=CYLINDRICAL_SURFACE('',#860,3.);
#40=CYLINDRICAL_SURFACE('',#863,3.);
#41=CYLINDRICAL_SURFACE('',#866,3.);
#42=CYLINDRICAL_SURFACE('',#879,1.15);
#43=CYLINDRICAL_SURFACE('',#883,1.15);
#44=CIRCLE('',#819,19.455);
#45=CIRCLE('',#821,19.455);
#46=CIRCLE('',#829,19.455);
#47=CIRCLE('',#830,19.455);
#48=CIRCLE('',#835,19.455);
#49=CIRCLE('',#837,19.455);
#50=CIRCLE('',#844,19.455);
#51=CIRCLE('',#845,19.455);
#52=CIRCLE('',#847,19.7);
#53=CIRCLE('',#848,19.7);
#54=CIRCLE('',#849,19.7);
#55=CIRCLE('',#850,3.);
#56=CIRCLE('',#851,16.7);
#57=CIRCLE('',#852,19.7);
#58=CIRCLE('',#854,3.);
#59=CIRCLE('',#855,3.);
#60=CIRCLE('',#861,3.);
#61=CIRCLE('',#862,3.);
#62=CIRCLE('',#864,3.);
#63=CIRCLE('',#865,3.);
#64=CIRCLE('',#867,3.);
#65=CIRCLE('',#868,3.);
#66=CIRCLE('',#870,3.);
#67=CIRCLE('',#872,3.);
#68=CIRCLE('',#874,3.);
#69=CIRCLE('',#876,3.);
#70=CIRCLE('',#878,1.15);
#71=CIRCLE('',#880,1.15);
#72=CIRCLE('',#882,1.15);
#73=CIRCLE('',#884,1.15);
#74=FACE_OUTER_BOUND('',#120,.T.);
#75=FACE_OUTER_BOUND('',#121,.T.);
#76=FACE_OUTER_BOUND('',#122,.T.);
#77=FACE_OUTER_BOUND('',#123,.T.);
#78=FACE_OUTER_BOUND('',#124,.T.);
#79=FACE_OUTER_BOUND('',#125,.T.);
#80=FACE_OUTER_BOUND('',#126,.T.);
#81=FACE_OUTER_BOUND('',#127,.T.);
#82=FACE_OUTER_BOUND('',#128,.T.);
#83=FACE_OUTER_BOUND('',#129,.T.);
#84=FACE_OUTER_BOUND('',#130,.T.);
#85=FACE_OUTER_BOUND('',#131,.T.);
#86=FACE_OUTER_BOUND('',#132,.T.);
#87=FACE_OUTER_BOUND('',#133,.T.);
#88=FACE_OUTER_BOUND('',#134,.T.);
#89=FACE_OUTER_BOUND('',#135,.T.);
#90=FACE_OUTER_BOUND('',#136,.T.);
#91=FACE_OUTER_BOUND('',#137,.T.);
#92=FACE_OUTER_BOUND('',#138,.T.);
#93=FACE_OUTER_BOUND('',#139,.T.);
#94=FACE_OUTER_BOUND('',#140,.T.);
#95=FACE_OUTER_BOUND('',#141,.T.);
#96=FACE_OUTER_BOUND('',#142,.T.);
#97=FACE_OUTER_BOUND('',#143,.T.);
#98=FACE_OUTER_BOUND('',#144,.T.);
#99=FACE_OUTER_BOUND('',#145,.T.);
#100=FACE_OUTER_BOUND('',#146,.T.);
#101=FACE_OUTER_BOUND('',#147,.T.);
#102=FACE_OUTER_BOUND('',#148,.T.);
#103=FACE_OUTER_BOUND('',#149,.T.);
#104=FACE_OUTER_BOUND('',#150,.T.);
#105=FACE_OUTER_BOUND('',#151,.T.);
#106=FACE_OUTER_BOUND('',#152,.T.);
#107=FACE_OUTER_BOUND('',#153,.T.);
#108=FACE_OUTER_BOUND('',#154,.T.);
#109=FACE_OUTER_BOUND('',#155,.T.);
#110=FACE_OUTER_BOUND('',#156,.T.);
#111=FACE_OUTER_BOUND('',#157,.T.);
#112=FACE_OUTER_BOUND('',#159,.T.);
#113=FACE_OUTER_BOUND('',#160,.T.);
#114=FACE_OUTER_BOUND('',#162,.T.);
#115=FACE_OUTER_BOUND('',#163,.T.);
#116=FACE_OUTER_BOUND('',#164,.T.);
#117=FACE_OUTER_BOUND('',#165,.T.);
#118=FACE_OUTER_BOUND('',#166,.T.);
#119=FACE_OUTER_BOUND('',#167,.T.);
#120=EDGE_LOOP('',(#504,#505,#506,#507));
#121=EDGE_LOOP('',(#508,#509,#510,#511));
#122=EDGE_LOOP('',(#512,#513,#514,#515));
#123=EDGE_LOOP('',(#516,#517,#518,#519,#520));
#124=EDGE_LOOP('',(#521,#522,#523,#524));
#125=EDGE_LOOP('',(#525,#526,#527,#528));
#126=EDGE_LOOP('',(#529,#530,#531,#532));
#127=EDGE_LOOP('',(#533,#534,#535,#536));
#128=EDGE_LOOP('',(#537,#538,#539,#540));
#129=EDGE_LOOP('',(#541,#542,#543,#544,#545));
#130=EDGE_LOOP('',(#546,#547,#548,#549));
#131=EDGE_LOOP('',(#550,#551,#552,#553));
#132=EDGE_LOOP('',(#554,#555,#556,#557));
#133=EDGE_LOOP('',(#558,#559,#560,#561,#562));
#134=EDGE_LOOP('',(#563,#564,#565,#566));
#135=EDGE_LOOP('',(#567,#568,#569,#570));
#136=EDGE_LOOP('',(#571,#572,#573,#574));
#137=EDGE_LOOP('',(#575,#576,#577,#578));
#138=EDGE_LOOP('',(#579,#580,#581,#582,#583));
#139=EDGE_LOOP('',(#584,#585,#586,#587,#588,#589,#590,#591,#592,#593,#594,
#595));
#140=EDGE_LOOP('',(#596,#597,#598,#599,#600,#601,#602));
#141=EDGE_LOOP('',(#603,#604,#605));
#142=EDGE_LOOP('',(#606,#607,#608));
#143=EDGE_LOOP('',(#609,#610,#611));
#144=EDGE_LOOP('',(#612,#613,#614));
#145=EDGE_LOOP('',(#615,#616,#617,#618,#619,#620));
#146=EDGE_LOOP('',(#621,#622,#623,#624,#625,#626));
#147=EDGE_LOOP('',(#627,#628,#629,#630,#631,#632));
#148=EDGE_LOOP('',(#633,#634,#635));
#149=EDGE_LOOP('',(#636,#637,#638));
#150=EDGE_LOOP('',(#639,#640,#641));
#151=EDGE_LOOP('',(#642,#643,#644));
#152=EDGE_LOOP('',(#645,#646,#647));
#153=EDGE_LOOP('',(#648,#649,#650,#651));
#154=EDGE_LOOP('',(#652,#653,#654));
#155=EDGE_LOOP('',(#655,#656,#657,#658));
#156=EDGE_LOOP('',(#659,#660,#661,#662,#663));
#157=EDGE_LOOP('',(#664,#665,#666,#667));
#158=EDGE_LOOP('',(#668));
#159=EDGE_LOOP('',(#669,#670,#671,#672,#673));
#160=EDGE_LOOP('',(#674,#675,#676,#677));
#161=EDGE_LOOP('',(#678));
#162=EDGE_LOOP('',(#679,#680,#681,#682));
#163=EDGE_LOOP('',(#683,#684,#685,#686));
#164=EDGE_LOOP('',(#687,#688,#689,#690,#691));
#165=EDGE_LOOP('',(#692,#693,#694,#695));
#166=EDGE_LOOP('',(#696,#697,#698,#699,#700));
#167=EDGE_LOOP('',(#701,#702,#703,#704,#705,#706,#707,#708));
#168=EDGE_LOOP('',(#709,#710,#711,#712));
#169=EDGE_LOOP('',(#713,#714,#715,#716));
#170=EDGE_LOOP('',(#717,#718,#719,#720));
#171=EDGE_LOOP('',(#721,#722,#723,#724));
#172=EDGE_LOOP('',(#725));
#173=ELLIPSE('',#816,27.5135248559686,19.455);
#174=ELLIPSE('',#825,27.5135248559686,19.455);
#175=ELLIPSE('',#833,27.5135248559686,19.455);
#176=ELLIPSE('',#840,27.5135248559686,19.455);
#177=LINE('',#1133,#249);
#178=LINE('',#1137,#250);
#179=LINE('',#1138,#251);
#180=LINE('',#1141,#252);
#181=LINE('',#1143,#253);
#182=LINE('',#1144,#254);
#183=LINE('',#1148,#255);
#184=LINE('',#1151,#256);
#185=LINE('',#1154,#257);
#186=LINE('',#1157,#258);
#187=LINE('',#1158,#259);
#188=LINE('',#1162,#260);
#189=LINE('',#1164,#261);
#190=LINE('',#1166,#262);
#191=LINE('',#1167,#263);
#192=LINE('',#1170,#264);
#193=LINE('',#1173,#265);
#194=LINE('',#1176,#266);
#195=LINE('',#1178,#267);
#196=LINE('',#1179,#268);
#197=LINE('',#1182,#269);
#198=LINE('',#1183,#270);
#199=LINE('',#1188,#271);
#200=LINE('',#1193,#272);
#201=LINE('',#1195,#273);
#202=LINE('',#1197,#274);
#203=LINE('',#1198,#275);
#204=LINE('',#1201,#276);
#205=LINE('',#1204,#277);
#206=LINE('',#1208,#278);
#207=LINE('',#1211,#279);
#208=LINE('',#1214,#280);
#209=LINE('',#1218,#281);
#210=LINE('',#1220,#282);
#211=LINE('',#1222,#283);
#212=LINE('',#1223,#284);
#213=LINE('',#1226,#285);
#214=LINE('',#1229,#286);
#215=LINE('',#1232,#287);
#216=LINE('',#1234,#288);
#217=LINE('',#1235,#289);
#218=LINE('',#1238,#290);
#219=LINE('',#1239,#291);
#220=LINE('',#1244,#292);
#221=LINE('',#1307,#293);
#222=LINE('',#1311,#294);
#223=LINE('',#1314,#295);
#224=LINE('',#1316,#296);
#225=LINE('',#1319,#297);
#226=LINE('',#1320,#298);
#227=LINE('',#1323,#299);
#228=LINE('',#1324,#300);
#229=LINE('',#1326,#301);
#230=LINE('',#1331,#302);
#231=LINE('',#1337,#303);
#232=LINE('',#1343,#304);
#233=LINE('',#1357,#305);
#234=LINE('',#1361,#306);
#235=LINE('',#1366,#307);
#236=LINE('',#1370,#308);
#237=LINE('',#1372,#309);
#238=LINE('',#1373,#310);
#239=LINE('',#1376,#311);
#240=LINE('',#1377,#312);
#241=LINE('',#1381,#313);
#242=LINE('',#1382,#314);
#243=LINE('',#1385,#315);
#244=LINE('',#1386,#316);
#245=LINE('',#1388,#317);
#246=LINE('',#1391,#318);
#247=LINE('',#1392,#319);
#248=LINE('',#1394,#320);
#249=VECTOR('',#899,10.);
#250=VECTOR('',#902,10.);
#251=VECTOR('',#903,10.);
#252=VECTOR('',#906,10.);
#253=VECTOR('',#907,10.);
#254=VECTOR('',#908,10.);
#255=VECTOR('',#913,10.);
#256=VECTOR('',#916,10.);
#257=VECTOR('',#919,10.);
#258=VECTOR('',#922,10.);
#259=VECTOR('',#923,10.);
#260=VECTOR('',#926,10.);
#261=VECTOR('',#927,10.);
#262=VECTOR('',#928,10.);
#263=VECTOR('',#929,10.);
#264=VECTOR('',#932,10.);
#265=VECTOR('',#935,10.);
#266=VECTOR('',#938,10.);
#267=VECTOR('',#939,10.);
#268=VECTOR('',#940,10.);
#269=VECTOR('',#943,10.);
#270=VECTOR('',#944,10.);
#271=VECTOR('',#949,10.);
#272=VECTOR('',#954,10.);
#273=VECTOR('',#955,10.);
#274=VECTOR('',#956,10.);
#275=VECTOR('',#957,10.);
#276=VECTOR('',#960,10.);
#277=VECTOR('',#963,10.);
#278=VECTOR('',#968,10.);
#279=VECTOR('',#971,10.);
#280=VECTOR('',#974,10.);
#281=VECTOR('',#977,10.);
#282=VECTOR('',#978,10.);
#283=VECTOR('',#979,10.);
#284=VECTOR('',#980,10.);
#285=VECTOR('',#983,10.);
#286=VECTOR('',#986,10.);
#287=VECTOR('',#989,10.);
#288=VECTOR('',#990,10.);
#289=VECTOR('',#991,10.);
#290=VECTOR('',#994,10.);
#291=VECTOR('',#995,10.);
#292=VECTOR('',#1000,10.);
#293=VECTOR('',#1019,10.);
#294=VECTOR('',#1022,10.);
#295=VECTOR('',#1025,10.);
#296=VECTOR('',#1028,10.);
#297=VECTOR('',#1031,10.);
#298=VECTOR('',#1032,10.);
#299=VECTOR('',#1035,10.);
#300=VECTOR('',#1036,10.);
#301=VECTOR('',#1039,10.);
#302=VECTOR('',#1044,10.);
#303=VECTOR('',#1051,10.);
#304=VECTOR('',#1058,10.);
#305=VECTOR('',#1081,0.575);
#306=VECTOR('',#1086,1.15);
#307=VECTOR('',#1091,0.575);
#308=VECTOR('',#1096,1.15);
#309=VECTOR('',#1099,10.);
#310=VECTOR('',#1100,10.);
#311=VECTOR('',#1105,10.);
#312=VECTOR('',#1106,10.);
#313=VECTOR('',#1111,10.);
#314=VECTOR('',#1112,10.);
#315=VECTOR('',#1115,10.);
#316=VECTOR('',#1116,10.);
#317=VECTOR('',#1119,10.);
#318=VECTOR('',#1122,10.);
#319=VECTOR('',#1123,10.);
#320=VECTOR('',#1126,10.);
#321=VERTEX_POINT('',#1131);
#322=VERTEX_POINT('',#1132);
#323=VERTEX_POINT('',#1134);
#324=VERTEX_POINT('',#1136);
#325=VERTEX_POINT('',#1140);
#326=VERTEX_POINT('',#1142);
#327=VERTEX_POINT('',#1146);
#328=VERTEX_POINT('',#1150);
#329=VERTEX_POINT('',#1152);
#330=VERTEX_POINT('',#1156);
#331=VERTEX_POINT('',#1160);
#332=VERTEX_POINT('',#1161);
#333=VERTEX_POINT('',#1163);
#334=VERTEX_POINT('',#1165);
#335=VERTEX_POINT('',#1169);
#336=VERTEX_POINT('',#1171);
#337=VERTEX_POINT('',#1175);
#338=VERTEX_POINT('',#1177);
#339=VERTEX_POINT('',#1181);
#340=VERTEX_POINT('',#1185);
#341=VERTEX_POINT('',#1187);
#342=VERTEX_POINT('',#1191);
#343=VERTEX_POINT('',#1192);
#344=VERTEX_POINT('',#1194);
#345=VERTEX_POINT('',#1196);
#346=VERTEX_POINT('',#1200);
#347=VERTEX_POINT('',#1202);
#348=VERTEX_POINT('',#1206);
#349=VERTEX_POINT('',#1210);
#350=VERTEX_POINT('',#1212);
#351=VERTEX_POINT('',#1216);
#352=VERTEX_POINT('',#1217);
#353=VERTEX_POINT('',#1219);
#354=VERTEX_POINT('',#1221);
#355=VERTEX_POINT('',#1225);
#356=VERTEX_POINT('',#1227);
#357=VERTEX_POINT('',#1231);
#358=VERTEX_POINT('',#1233);
#359=VERTEX_POINT('',#1237);
#360=VERTEX_POINT('',#1241);
#361=VERTEX_POINT('',#1243);
#362=VERTEX_POINT('',#1247);
#363=VERTEX_POINT('',#1248);
#364=VERTEX_POINT('',#1259);
#365=VERTEX_POINT('',#1261);
#366=VERTEX_POINT('',#1272);
#367=VERTEX_POINT('',#1274);
#368=VERTEX_POINT('',#1285);
#369=VERTEX_POINT('',#1287);
#370=VERTEX_POINT('',#1294);
#371=VERTEX_POINT('',#1297);
#372=VERTEX_POINT('',#1306);
#373=VERTEX_POINT('',#1308);
#374=VERTEX_POINT('',#1310);
#375=VERTEX_POINT('',#1312);
#376=VERTEX_POINT('',#1318);
#377=VERTEX_POINT('',#1322);
#378=VERTEX_POINT('',#1328);
#379=VERTEX_POINT('',#1330);
#380=VERTEX_POINT('',#1334);
#381=VERTEX_POINT('',#1336);
#382=VERTEX_POINT('',#1340);
#383=VERTEX_POINT('',#1342);
#384=VERTEX_POINT('',#1354);
#385=VERTEX_POINT('',#1356);
#386=VERTEX_POINT('',#1359);
#387=VERTEX_POINT('',#1363);
#388=VERTEX_POINT('',#1365);
#389=VERTEX_POINT('',#1368);
#390=VERTEX_POINT('',#1380);
#391=VERTEX_POINT('',#1384);
#392=VERTEX_POINT('',#1390);
#393=EDGE_CURVE('',#321,#322,#177,.T.);
#394=EDGE_CURVE('',#322,#323,#173,.T.);
#395=EDGE_CURVE('',#323,#324,#178,.T.);
#396=EDGE_CURVE('',#324,#321,#179,.T.);
#397=EDGE_CURVE('',#324,#325,#180,.T.);
#398=EDGE_CURVE('',#325,#326,#181,.T.);
#399=EDGE_CURVE('',#326,#321,#182,.T.);
#400=EDGE_CURVE('',#327,#323,#44,.T.);
#401=EDGE_CURVE('',#325,#327,#183,.T.);
#402=EDGE_CURVE('',#328,#322,#184,.T.);
#403=EDGE_CURVE('',#329,#328,#45,.T.);
#404=EDGE_CURVE('',#329,#327,#185,.T.);
#405=EDGE_CURVE('',#330,#321,#186,.T.);
#406=EDGE_CURVE('',#328,#330,#187,.T.);
#407=EDGE_CURVE('',#331,#332,#188,.T.);
#408=EDGE_CURVE('',#332,#333,#189,.T.);
#409=EDGE_CURVE('',#333,#334,#190,.T.);
#410=EDGE_CURVE('',#334,#331,#191,.T.);
#411=EDGE_CURVE('',#334,#335,#192,.T.);
#412=EDGE_CURVE('',#335,#336,#174,.T.);
#413=EDGE_CURVE('',#336,#331,#193,.T.);
#414=EDGE_CURVE('',#337,#331,#194,.T.);
#415=EDGE_CURVE('',#338,#337,#195,.T.);
#416=EDGE_CURVE('',#338,#332,#196,.T.);
#417=EDGE_CURVE('',#339,#336,#197,.T.);
#418=EDGE_CURVE('',#337,#339,#198,.T.);
#419=EDGE_CURVE('',#335,#340,#46,.T.);
#420=EDGE_CURVE('',#341,#340,#199,.T.);
#421=EDGE_CURVE('',#339,#341,#47,.T.);
#422=EDGE_CURVE('',#342,#343,#200,.T.);
#423=EDGE_CURVE('',#343,#344,#201,.T.);
#424=EDGE_CURVE('',#344,#345,#202,.T.);
#425=EDGE_CURVE('',#345,#342,#203,.T.);
#426=EDGE_CURVE('',#345,#346,#204,.T.);
#427=EDGE_CURVE('',#346,#347,#175,.T.);
#428=EDGE_CURVE('',#347,#342,#205,.T.);
#429=EDGE_CURVE('',#348,#347,#48,.T.);
#430=EDGE_CURVE('',#343,#348,#206,.T.);
#431=EDGE_CURVE('',#349,#346,#207,.T.);
#432=EDGE_CURVE('',#350,#349,#49,.T.);
#433=EDGE_CURVE('',#350,#348,#208,.T.);
#434=EDGE_CURVE('',#351,#352,#209,.T.);
#435=EDGE_CURVE('',#352,#353,#210,.T.);
#436=EDGE_CURVE('',#353,#354,#211,.T.);
#437=EDGE_CURVE('',#354,#351,#212,.T.);
#438=EDGE_CURVE('',#354,#355,#213,.T.);
#439=EDGE_CURVE('',#355,#356,#176,.T.);
#440=EDGE_CURVE('',#356,#351,#214,.T.);
#441=EDGE_CURVE('',#357,#351,#215,.T.);
#442=EDGE_CURVE('',#358,#357,#216,.T.);
#443=EDGE_CURVE('',#358,#352,#217,.T.);
#444=EDGE_CURVE('',#359,#356,#218,.T.);
#445=EDGE_CURVE('',#357,#359,#219,.T.);
#446=EDGE_CURVE('',#355,#360,#50,.T.);
#447=EDGE_CURVE('',#361,#360,#220,.T.);
#448=EDGE_CURVE('',#359,#361,#51,.T.);
#449=EDGE_CURVE('',#362,#363,#28,.T.);
#450=EDGE_CURVE('',#363,#364,#52,.T.);
#451=EDGE_CURVE('',#364,#365,#29,.T.);
#452=EDGE_CURVE('',#365,#366,#53,.T.);
#453=EDGE_CURVE('',#366,#367,#30,.T.);
#454=EDGE_CURVE('',#367,#368,#54,.T.);
#455=EDGE_CURVE('',#368,#369,#31,.T.);
#456=EDGE_CURVE('',#369,#370,#55,.T.);
#457=EDGE_CURVE('',#370,#370,#56,.T.);
#458=EDGE_CURVE('',#369,#371,#32,.T.);
#459=EDGE_CURVE('',#371,#362,#57,.T.);
#460=EDGE_CURVE('',#368,#372,#221,.T.);
#461=EDGE_CURVE('',#372,#373,#58,.T.);
#462=EDGE_CURVE('',#374,#373,#222,.T.);
#463=EDGE_CURVE('',#374,#375,#59,.T.);
#464=EDGE_CURVE('',#375,#371,#223,.T.);
#465=EDGE_CURVE('',#372,#367,#224,.T.);
#466=EDGE_CURVE('',#376,#365,#225,.T.);
#467=EDGE_CURVE('',#366,#376,#226,.T.);
#468=EDGE_CURVE('',#377,#363,#227,.T.);
#469=EDGE_CURVE('',#364,#377,#228,.T.);
#470=EDGE_CURVE('',#362,#375,#229,.T.);
#471=EDGE_CURVE('',#376,#378,#60,.T.);
#472=EDGE_CURVE('',#379,#378,#230,.T.);
#473=EDGE_CURVE('',#379,#372,#61,.T.);
#474=EDGE_CURVE('',#377,#380,#62,.T.);
#475=EDGE_CURVE('',#381,#380,#231,.T.);
#476=EDGE_CURVE('',#381,#376,#63,.T.);
#477=EDGE_CURVE('',#375,#382,#64,.T.);
#478=EDGE_CURVE('',#383,#382,#232,.T.);
#479=EDGE_CURVE('',#383,#377,#65,.T.);
#480=EDGE_CURVE('',#383,#380,#66,.T.);
#481=EDGE_CURVE('',#374,#382,#67,.T.);
#482=EDGE_CURVE('',#379,#373,#68,.T.);
#483=EDGE_CURVE('',#381,#378,#69,.T.);
#484=EDGE_CURVE('',#384,#384,#70,.T.);
#485=EDGE_CURVE('',#384,#385,#233,.T.);
#486=EDGE_CURVE('',#386,#386,#71,.T.);
#487=EDGE_CURVE('',#386,#384,#234,.T.);
#488=EDGE_CURVE('',#387,#387,#72,.T.);
#489=EDGE_CURVE('',#387,#388,#235,.T.);
#490=EDGE_CURVE('',#389,#389,#73,.T.);
#491=EDGE_CURVE('',#389,#387,#236,.T.);
#492=EDGE_CURVE('',#361,#358,#237,.T.);
#493=EDGE_CURVE('',#360,#353,#238,.T.);
#494=EDGE_CURVE('',#341,#338,#239,.T.);
#495=EDGE_CURVE('',#340,#333,#240,.T.);
#496=EDGE_CURVE('',#390,#345,#241,.T.);
#497=EDGE_CURVE('',#349,#390,#242,.T.);
#498=EDGE_CURVE('',#391,#344,#243,.T.);
#499=EDGE_CURVE('',#390,#391,#244,.T.);
#500=EDGE_CURVE('',#391,#350,#245,.T.);
#501=EDGE_CURVE('',#392,#326,#246,.T.);
#502=EDGE_CURVE('',#330,#392,#247,.T.);
#503=EDGE_CURVE('',#392,#329,#248,.T.);
#504=ORIENTED_EDGE('',*,*,#393,.T.);
#505=ORIENTED_EDGE('',*,*,#394,.T.);
#506=ORIENTED_EDGE('',*,*,#395,.T.);
#507=ORIENTED_EDGE('',*,*,#396,.T.);
#508=ORIENTED_EDGE('',*,*,#397,.T.);
#509=ORIENTED_EDGE('',*,*,#398,.T.);
#510=ORIENTED_EDGE('',*,*,#399,.T.);
#511=ORIENTED_EDGE('',*,*,#396,.F.);
#512=ORIENTED_EDGE('',*,*,#397,.F.);
#513=ORIENTED_EDGE('',*,*,#395,.F.);
#514=ORIENTED_EDGE('',*,*,#400,.F.);
#515=ORIENTED_EDGE('',*,*,#401,.F.);
#516=ORIENTED_EDGE('',*,*,#394,.F.);
#517=ORIENTED_EDGE('',*,*,#402,.F.);
#518=ORIENTED_EDGE('',*,*,#403,.F.);
#519=ORIENTED_EDGE('',*,*,#404,.T.);
#520=ORIENTED_EDGE('',*,*,#400,.T.);
#521=ORIENTED_EDGE('',*,*,#393,.F.);
#522=ORIENTED_EDGE('',*,*,#405,.F.);
#523=ORIENTED_EDGE('',*,*,#406,.F.);
#524=ORIENTED_EDGE('',*,*,#402,.T.);
#525=ORIENTED_EDGE('',*,*,#407,.T.);
#526=ORIENTED_EDGE('',*,*,#408,.T.);
#527=ORIENTED_EDGE('',*,*,#409,.T.);
#528=ORIENTED_EDGE('',*,*,#410,.T.);
#529=ORIENTED_EDGE('',*,*,#411,.T.);
#530=ORIENTED_EDGE('',*,*,#412,.T.);
#531=ORIENTED_EDGE('',*,*,#413,.T.);
#532=ORIENTED_EDGE('',*,*,#410,.F.);
#533=ORIENTED_EDGE('',*,*,#407,.F.);
#534=ORIENTED_EDGE('',*,*,#414,.F.);
#535=ORIENTED_EDGE('',*,*,#415,.F.);
#536=ORIENTED_EDGE('',*,*,#416,.T.);
#537=ORIENTED_EDGE('',*,*,#413,.F.);
#538=ORIENTED_EDGE('',*,*,#417,.F.);
#539=ORIENTED_EDGE('',*,*,#418,.F.);
#540=ORIENTED_EDGE('',*,*,#414,.T.);
#541=ORIENTED_EDGE('',*,*,#412,.F.);
#542=ORIENTED_EDGE('',*,*,#419,.T.);
#543=ORIENTED_EDGE('',*,*,#420,.F.);
#544=ORIENTED_EDGE('',*,*,#421,.F.);
#545=ORIENTED_EDGE('',*,*,#417,.T.);
#546=ORIENTED_EDGE('',*,*,#422,.T.);
#547=ORIENTED_EDGE('',*,*,#423,.T.);
#548=ORIENTED_EDGE('',*,*,#424,.T.);
#549=ORIENTED_EDGE('',*,*,#425,.T.);
#550=ORIENTED_EDGE('',*,*,#426,.T.);
#551=ORIENTED_EDGE('',*,*,#427,.T.);
#552=ORIENTED_EDGE('',*,*,#428,.T.);
#553=ORIENTED_EDGE('',*,*,#425,.F.);
#554=ORIENTED_EDGE('',*,*,#422,.F.);
#555=ORIENTED_EDGE('',*,*,#428,.F.);
#556=ORIENTED_EDGE('',*,*,#429,.F.);
#557=ORIENTED_EDGE('',*,*,#430,.F.);
#558=ORIENTED_EDGE('',*,*,#427,.F.);
#559=ORIENTED_EDGE('',*,*,#431,.F.);
#560=ORIENTED_EDGE('',*,*,#432,.F.);
#561=ORIENTED_EDGE('',*,*,#433,.T.);
#562=ORIENTED_EDGE('',*,*,#429,.T.);
#563=ORIENTED_EDGE('',*,*,#434,.T.);
#564=ORIENTED_EDGE('',*,*,#435,.T.);
#565=ORIENTED_EDGE('',*,*,#436,.T.);
#566=ORIENTED_EDGE('',*,*,#437,.T.);
#567=ORIENTED_EDGE('',*,*,#438,.T.);
#568=ORIENTED_EDGE('',*,*,#439,.T.);
#569=ORIENTED_EDGE('',*,*,#440,.T.);
#570=ORIENTED_EDGE('',*,*,#437,.F.);
#571=ORIENTED_EDGE('',*,*,#434,.F.);
#572=ORIENTED_EDGE('',*,*,#441,.F.);
#573=ORIENTED_EDGE('',*,*,#442,.F.);
#574=ORIENTED_EDGE('',*,*,#443,.T.);
#575=ORIENTED_EDGE('',*,*,#440,.F.);
#576=ORIENTED_EDGE('',*,*,#444,.F.);
#577=ORIENTED_EDGE('',*,*,#445,.F.);
#578=ORIENTED_EDGE('',*,*,#441,.T.);
#579=ORIENTED_EDGE('',*,*,#439,.F.);
#580=ORIENTED_EDGE('',*,*,#446,.T.);
#581=ORIENTED_EDGE('',*,*,#447,.F.);
#582=ORIENTED_EDGE('',*,*,#448,.F.);
#583=ORIENTED_EDGE('',*,*,#444,.T.);
#584=ORIENTED_EDGE('',*,*,#449,.T.);
#585=ORIENTED_EDGE('',*,*,#450,.T.);
#586=ORIENTED_EDGE('',*,*,#451,.T.);
#587=ORIENTED_EDGE('',*,*,#452,.T.);
#588=ORIENTED_EDGE('',*,*,#453,.T.);
#589=ORIENTED_EDGE('',*,*,#454,.T.);
#590=ORIENTED_EDGE('',*,*,#455,.T.);
#591=ORIENTED_EDGE('',*,*,#456,.T.);
#592=ORIENTED_EDGE('',*,*,#457,.T.);
#593=ORIENTED_EDGE('',*,*,#456,.F.);
#594=ORIENTED_EDGE('',*,*,#458,.T.);
#595=ORIENTED_EDGE('',*,*,#459,.T.);
#596=ORIENTED_EDGE('',*,*,#455,.F.);
#597=ORIENTED_EDGE('',*,*,#460,.T.);
#598=ORIENTED_EDGE('',*,*,#461,.T.);
#599=ORIENTED_EDGE('',*,*,#462,.F.);
#600=ORIENTED_EDGE('',*,*,#463,.T.);
#601=ORIENTED_EDGE('',*,*,#464,.T.);
#602=ORIENTED_EDGE('',*,*,#458,.F.);
#603=ORIENTED_EDGE('',*,*,#454,.F.);
#604=ORIENTED_EDGE('',*,*,#465,.F.);
#605=ORIENTED_EDGE('',*,*,#460,.F.);
#606=ORIENTED_EDGE('',*,*,#452,.F.);
#607=ORIENTED_EDGE('',*,*,#466,.F.);
#608=ORIENTED_EDGE('',*,*,#467,.F.);
#609=ORIENTED_EDGE('',*,*,#450,.F.);
#610=ORIENTED_EDGE('',*,*,#468,.F.);
#611=ORIENTED_EDGE('',*,*,#469,.F.);
#612=ORIENTED_EDGE('',*,*,#459,.F.);
#613=ORIENTED_EDGE('',*,*,#464,.F.);
#614=ORIENTED_EDGE('',*,*,#470,.F.);
#615=ORIENTED_EDGE('',*,*,#453,.F.);
#616=ORIENTED_EDGE('',*,*,#467,.T.);
#617=ORIENTED_EDGE('',*,*,#471,.T.);
#618=ORIENTED_EDGE('',*,*,#472,.F.);
#619=ORIENTED_EDGE('',*,*,#473,.T.);
#620=ORIENTED_EDGE('',*,*,#465,.T.);
#621=ORIENTED_EDGE('',*,*,#451,.F.);
#622=ORIENTED_EDGE('',*,*,#469,.T.);
#623=ORIENTED_EDGE('',*,*,#474,.T.);
#624=ORIENTED_EDGE('',*,*,#475,.F.);
#625=ORIENTED_EDGE('',*,*,#476,.T.);
#626=ORIENTED_EDGE('',*,*,#466,.T.);
#627=ORIENTED_EDGE('',*,*,#449,.F.);
#628=ORIENTED_EDGE('',*,*,#470,.T.);
#629=ORIENTED_EDGE('',*,*,#477,.T.);
#630=ORIENTED_EDGE('',*,*,#478,.F.);
#631=ORIENTED_EDGE('',*,*,#479,.T.);
#632=ORIENTED_EDGE('',*,*,#468,.T.);
#633=ORIENTED_EDGE('',*,*,#479,.F.);
#634=ORIENTED_EDGE('',*,*,#480,.T.);
#635=ORIENTED_EDGE('',*,*,#474,.F.);
#636=ORIENTED_EDGE('',*,*,#463,.F.);
#637=ORIENTED_EDGE('',*,*,#481,.T.);
#638=ORIENTED_EDGE('',*,*,#477,.F.);
#639=ORIENTED_EDGE('',*,*,#473,.F.);
#640=ORIENTED_EDGE('',*,*,#482,.T.);
#641=ORIENTED_EDGE('',*,*,#461,.F.);
#642=ORIENTED_EDGE('',*,*,#476,.F.);
#643=ORIENTED_EDGE('',*,*,#483,.T.);
#644=ORIENTED_EDGE('',*,*,#471,.F.);
#645=ORIENTED_EDGE('',*,*,#484,.F.);
#646=ORIENTED_EDGE('',*,*,#485,.T.);
#647=ORIENTED_EDGE('',*,*,#485,.F.);
#648=ORIENTED_EDGE('',*,*,#486,.F.);
#649=ORIENTED_EDGE('',*,*,#487,.T.);
#650=ORIENTED_EDGE('',*,*,#484,.T.);
#651=ORIENTED_EDGE('',*,*,#487,.F.);
#652=ORIENTED_EDGE('',*,*,#488,.F.);
#653=ORIENTED_EDGE('',*,*,#489,.T.);
#654=ORIENTED_EDGE('',*,*,#489,.F.);
#655=ORIENTED_EDGE('',*,*,#490,.F.);
#656=ORIENTED_EDGE('',*,*,#491,.T.);
#657=ORIENTED_EDGE('',*,*,#488,.T.);
#658=ORIENTED_EDGE('',*,*,#491,.F.);
#659=ORIENTED_EDGE('',*,*,#435,.F.);
#660=ORIENTED_EDGE('',*,*,#443,.F.);
#661=ORIENTED_EDGE('',*,*,#492,.F.);
#662=ORIENTED_EDGE('',*,*,#447,.T.);
#663=ORIENTED_EDGE('',*,*,#493,.T.);
#664=ORIENTED_EDGE('',*,*,#436,.F.);
#665=ORIENTED_EDGE('',*,*,#493,.F.);
#666=ORIENTED_EDGE('',*,*,#446,.F.);
#667=ORIENTED_EDGE('',*,*,#438,.F.);
#668=ORIENTED_EDGE('',*,*,#490,.T.);
#669=ORIENTED_EDGE('',*,*,#408,.F.);
#670=ORIENTED_EDGE('',*,*,#416,.F.);
#671=ORIENTED_EDGE('',*,*,#494,.F.);
#672=ORIENTED_EDGE('',*,*,#420,.T.);
#673=ORIENTED_EDGE('',*,*,#495,.T.);
#674=ORIENTED_EDGE('',*,*,#409,.F.);
#675=ORIENTED_EDGE('',*,*,#495,.F.);
#676=ORIENTED_EDGE('',*,*,#419,.F.);
#677=ORIENTED_EDGE('',*,*,#411,.F.);
#678=ORIENTED_EDGE('',*,*,#486,.T.);
#679=ORIENTED_EDGE('',*,*,#426,.F.);
#680=ORIENTED_EDGE('',*,*,#496,.F.);
#681=ORIENTED_EDGE('',*,*,#497,.F.);
#682=ORIENTED_EDGE('',*,*,#431,.T.);
#683=ORIENTED_EDGE('',*,*,#424,.F.);
#684=ORIENTED_EDGE('',*,*,#498,.F.);
#685=ORIENTED_EDGE('',*,*,#499,.F.);
#686=ORIENTED_EDGE('',*,*,#496,.T.);
#687=ORIENTED_EDGE('',*,*,#423,.F.);
#688=ORIENTED_EDGE('',*,*,#430,.T.);
#689=ORIENTED_EDGE('',*,*,#433,.F.);
#690=ORIENTED_EDGE('',*,*,#500,.F.);
#691=ORIENTED_EDGE('',*,*,#498,.T.);
#692=ORIENTED_EDGE('',*,*,#399,.F.);
#693=ORIENTED_EDGE('',*,*,#501,.F.);
#694=ORIENTED_EDGE('',*,*,#502,.F.);
#695=ORIENTED_EDGE('',*,*,#405,.T.);
#696=ORIENTED_EDGE('',*,*,#398,.F.);
#697=ORIENTED_EDGE('',*,*,#401,.T.);
#698=ORIENTED_EDGE('',*,*,#404,.F.);
#699=ORIENTED_EDGE('',*,*,#503,.F.);
#700=ORIENTED_EDGE('',*,*,#501,.T.);
#701=ORIENTED_EDGE('',*,*,#480,.F.);
#702=ORIENTED_EDGE('',*,*,#478,.T.);
#703=ORIENTED_EDGE('',*,*,#481,.F.);
#704=ORIENTED_EDGE('',*,*,#462,.T.);
#705=ORIENTED_EDGE('',*,*,#482,.F.);
#706=ORIENTED_EDGE('',*,*,#472,.T.);
#707=ORIENTED_EDGE('',*,*,#483,.F.);
#708=ORIENTED_EDGE('',*,*,#475,.T.);
#709=ORIENTED_EDGE('',*,*,#448,.T.);
#710=ORIENTED_EDGE('',*,*,#492,.T.);
#711=ORIENTED_EDGE('',*,*,#442,.T.);
#712=ORIENTED_EDGE('',*,*,#445,.T.);
#713=ORIENTED_EDGE('',*,*,#421,.T.);
#714=ORIENTED_EDGE('',*,*,#494,.T.);
#715=ORIENTED_EDGE('',*,*,#415,.T.);
#716=ORIENTED_EDGE('',*,*,#418,.T.);
#717=ORIENTED_EDGE('',*,*,#432,.T.);
#718=ORIENTED_EDGE('',*,*,#497,.T.);
#719=ORIENTED_EDGE('',*,*,#499,.T.);
#720=ORIENTED_EDGE('',*,*,#500,.T.);
#721=ORIENTED_EDGE('',*,*,#406,.T.);
#722=ORIENTED_EDGE('',*,*,#502,.T.);
#723=ORIENTED_EDGE('',*,*,#503,.T.);
#724=ORIENTED_EDGE('',*,*,#403,.T.);
#725=ORIENTED_EDGE('',*,*,#457,.F.);
#726=PLANE('',#815);
#727=PLANE('',#817);
#728=PLANE('',#818);
#729=PLANE('',#822);
#730=PLANE('',#823);
#731=PLANE('',#824);
#732=PLANE('',#826);
#733=PLANE('',#827);
#734=PLANE('',#831);
#735=PLANE('',#832);
#736=PLANE('',#834);
#737=PLANE('',#838);
#738=PLANE('',#839);
#739=PLANE('',#841);
#740=PLANE('',#842);
#741=PLANE('',#856);
#742=PLANE('',#857);
#743=PLANE('',#858);
#744=PLANE('',#859);
#745=PLANE('',#885);
#746=PLANE('',#886);
#747=PLANE('',#887);
#748=PLANE('',#888);
#749=PLANE('',#889);
#750=PLANE('',#890);
#751=PLANE('',#891);
#752=PLANE('',#892);
#753=PLANE('',#893);
#754=PLANE('',#894);
#755=ADVANCED_FACE('',(#74),#726,.T.);
#756=ADVANCED_FACE('',(#75),#727,.T.);
#757=ADVANCED_FACE('',(#76),#728,.T.);
#758=ADVANCED_FACE('',(#77),#34,.F.);
#759=ADVANCED_FACE('',(#78),#729,.T.);
#760=ADVANCED_FACE('',(#79),#730,.T.);
#761=ADVANCED_FACE('',(#80),#731,.T.);
#762=ADVANCED_FACE('',(#81),#732,.T.);
#763=ADVANCED_FACE('',(#82),#733,.T.);
#764=ADVANCED_FACE('',(#83),#35,.F.);
#765=ADVANCED_FACE('',(#84),#734,.T.);
#766=ADVANCED_FACE('',(#85),#735,.T.);
#767=ADVANCED_FACE('',(#86),#736,.T.);
#768=ADVANCED_FACE('',(#87),#36,.F.);
#769=ADVANCED_FACE('',(#88),#737,.T.);
#770=ADVANCED_FACE('',(#89),#738,.T.);
#771=ADVANCED_FACE('',(#90),#739,.T.);
#772=ADVANCED_FACE('',(#91),#740,.T.);
#773=ADVANCED_FACE('',(#92),#37,.F.);
#774=ADVANCED_FACE('',(#93),#33,.T.);
#775=ADVANCED_FACE('',(#94),#38,.T.);
#776=ADVANCED_FACE('',(#95),#741,.T.);
#777=ADVANCED_FACE('',(#96),#742,.T.);
#778=ADVANCED_FACE('',(#97),#743,.T.);
#779=ADVANCED_FACE('',(#98),#744,.T.);
#780=ADVANCED_FACE('',(#99),#39,.T.);
#781=ADVANCED_FACE('',(#100),#40,.T.);
#782=ADVANCED_FACE('',(#101),#41,.T.);
#783=ADVANCED_FACE('',(#102),#24,.T.);
#784=ADVANCED_FACE('',(#103),#25,.T.);
#785=ADVANCED_FACE('',(#104),#26,.T.);
#786=ADVANCED_FACE('',(#105),#27,.T.);
#787=ADVANCED_FACE('',(#106),#22,.F.);
#788=ADVANCED_FACE('',(#107),#42,.F.);
#789=ADVANCED_FACE('',(#108),#23,.F.);
#790=ADVANCED_FACE('',(#109),#43,.F.);
#791=ADVANCED_FACE('',(#110),#745,.T.);
#792=ADVANCED_FACE('',(#111,#15),#746,.T.);
#793=ADVANCED_FACE('',(#112),#747,.T.);
#794=ADVANCED_FACE('',(#113,#16),#748,.T.);
#795=ADVANCED_FACE('',(#114),#749,.T.);
#796=ADVANCED_FACE('',(#115),#750,.T.);
#797=ADVANCED_FACE('',(#116),#751,.T.);
#798=ADVANCED_FACE('',(#117),#752,.T.);
#799=ADVANCED_FACE('',(#118),#753,.T.);
#800=ADVANCED_FACE('',(#119,#17,#18,#19,#20,#21),#754,.F.);
#801=CLOSED_SHELL('',(#755,#756,#757,#758,#759,#760,#761,#762,#763,#764,
#765,#766,#767,#768,#769,#770,#771,#772,#773,#774,#775,#776,#777,#778,#779,
#780,#781,#782,#783,#784,#785,#786,#787,#788,#789,#790,#791,#792,#793,#794,
#795,#796,#797,#798,#799,#800));
#802=DERIVED_UNIT_ELEMENT(#804,1.);
#803=DERIVED_UNIT_ELEMENT(#1401,-3.);
#804=(
MASS_UNIT()
NAMED_UNIT(*)
SI_UNIT(.KILO.,.GRAM.)
);
#805=DERIVED_UNIT((#802,#803));
#806=MEASURE_REPRESENTATION_ITEM('density measure',
POSITIVE_RATIO_MEASURE(7850.),#805);
#807=PROPERTY_DEFINITION_REPRESENTATION(#812,#809);
#808=PROPERTY_DEFINITION_REPRESENTATION(#813,#810);
#809=REPRESENTATION('material name',(#811),#1398);
#810=REPRESENTATION('density',(#806),#1398);
#811=DESCRIPTIVE_REPRESENTATION_ITEM('Steel','Steel');
#812=PROPERTY_DEFINITION('material property','material name',#1408);
#813=PROPERTY_DEFINITION('material property','density of part',#1408);
#814=AXIS2_PLACEMENT_3D('',#1129,#895,#896);
#815=AXIS2_PLACEMENT_3D('',#1130,#897,#898);
#816=AXIS2_PLACEMENT_3D('',#1135,#900,#901);
#817=AXIS2_PLACEMENT_3D('',#1139,#904,#905);
#818=AXIS2_PLACEMENT_3D('',#1145,#909,#910);
#819=AXIS2_PLACEMENT_3D('',#1147,#911,#912);
#820=AXIS2_PLACEMENT_3D('',#1149,#914,#915);
#821=AXIS2_PLACEMENT_3D('',#1153,#917,#918);
#822=AXIS2_PLACEMENT_3D('',#1155,#920,#921);
#823=AXIS2_PLACEMENT_3D('',#1159,#924,#925);
#824=AXIS2_PLACEMENT_3D('',#1168,#930,#931);
#825=AXIS2_PLACEMENT_3D('',#1172,#933,#934);
#826=AXIS2_PLACEMENT_3D('',#1174,#936,#937);
#827=AXIS2_PLACEMENT_3D('',#1180,#941,#942);
#828=AXIS2_PLACEMENT_3D('',#1184,#945,#946);
#829=AXIS2_PLACEMENT_3D('',#1186,#947,#948);
#830=AXIS2_PLACEMENT_3D('',#1189,#950,#951);
#831=AXIS2_PLACEMENT_3D('',#1190,#952,#953);
#832=AXIS2_PLACEMENT_3D('',#1199,#958,#959);
#833=AXIS2_PLACEMENT_3D('',#1203,#961,#962);
#834=AXIS2_PLACEMENT_3D('',#1205,#964,#965);
#835=AXIS2_PLACEMENT_3D('',#1207,#966,#967);
#836=AXIS2_PLACEMENT_3D('',#1209,#969,#970);
#837=AXIS2_PLACEMENT_3D('',#1213,#972,#973);
#838=AXIS2_PLACEMENT_3D('',#1215,#975,#976);
#839=AXIS2_PLACEMENT_3D('',#1224,#981,#982);
#840=AXIS2_PLACEMENT_3D('',#1228,#984,#985);
#841=AXIS2_PLACEMENT_3D('',#1230,#987,#988);
#842=AXIS2_PLACEMENT_3D('',#1236,#992,#993);
#843=AXIS2_PLACEMENT_3D('',#1240,#996,#997);
#844=AXIS2_PLACEMENT_3D('',#1242,#998,#999);
#845=AXIS2_PLACEMENT_3D('',#1245,#1001,#1002);
#846=AXIS2_PLACEMENT_3D('',#1246,#1003,#1004);
#847=AXIS2_PLACEMENT_3D('',#1260,#1005,#1006);
#848=AXIS2_PLACEMENT_3D('',#1273,#1007,#1008);
#849=AXIS2_PLACEMENT_3D('',#1286,#1009,#1010);
#850=AXIS2_PLACEMENT_3D('',#1295,#1011,#1012);
#851=AXIS2_PLACEMENT_3D('',#1296,#1013,#1014);
#852=AXIS2_PLACEMENT_3D('',#1304,#1015,#1016);
#853=AXIS2_PLACEMENT_3D('',#1305,#1017,#1018);
#854=AXIS2_PLACEMENT_3D('',#1309,#1020,#1021);
#855=AXIS2_PLACEMENT_3D('',#1313,#1023,#1024);
#856=AXIS2_PLACEMENT_3D('',#1315,#1026,#1027);
#857=AXIS2_PLACEMENT_3D('',#1317,#1029,#1030);
#858=AXIS2_PLACEMENT_3D('',#1321,#1033,#1034);
#859=AXIS2_PLACEMENT_3D('',#1325,#1037,#1038);
#860=AXIS2_PLACEMENT_3D('',#1327,#1040,#1041);
#861=AXIS2_PLACEMENT_3D('',#1329,#1042,#1043);
#862=AXIS2_PLACEMENT_3D('',#1332,#1045,#1046);
#863=AXIS2_PLACEMENT_3D('',#1333,#1047,#1048);
#864=AXIS2_PLACEMENT_3D('',#1335,#1049,#1050);
#865=AXIS2_PLACEMENT_3D('',#1338,#1052,#1053);
#866=AXIS2_PLACEMENT_3D('',#1339,#1054,#1055);
#867=AXIS2_PLACEMENT_3D('',#1341,#1056,#1057);
#868=AXIS2_PLACEMENT_3D('',#1344,#1059,#1060);
#869=AXIS2_PLACEMENT_3D('',#1345,#1061,#1062);
#870=AXIS2_PLACEMENT_3D('',#1346,#1063,#1064);
#871=AXIS2_PLACEMENT_3D('',#1347,#1065,#1066);
#872=AXIS2_PLACEMENT_3D('',#1348,#1067,#1068);
#873=AXIS2_PLACEMENT_3D('',#1349,#1069,#1070);
#874=AXIS2_PLACEMENT_3D('',#1350,#1071,#1072);
#875=AXIS2_PLACEMENT_3D('',#1351,#1073,#1074);
#876=AXIS2_PLACEMENT_3D('',#1352,#1075,#1076);
#877=AXIS2_PLACEMENT_3D('',#1353,#1077,#1078);
#878=AXIS2_PLACEMENT_3D('',#1355,#1079,#1080);
#879=AXIS2_PLACEMENT_3D('',#1358,#1082,#1083);
#880=AXIS2_PLACEMENT_3D('',#1360,#1084,#1085);
#881=AXIS2_PLACEMENT_3D('',#1362,#1087,#1088);
#882=AXIS2_PLACEMENT_3D('',#1364,#1089,#1090);
#883=AXIS2_PLACEMENT_3D('',#1367,#1092,#1093);
#884=AXIS2_PLACEMENT_3D('',#1369,#1094,#1095);
#885=AXIS2_PLACEMENT_3D('',#1371,#1097,#1098);
#886=AXIS2_PLACEMENT_3D('',#1374,#1101,#1102);
#887=AXIS2_PLACEMENT_3D('',#1375,#1103,#1104);
#888=AXIS2_PLACEMENT_3D('',#1378,#1107,#1108);
#889=AXIS2_PLACEMENT_3D('',#1379,#1109,#1110);
#890=AXIS2_PLACEMENT_3D('',#1383,#1113,#1114);
#891=AXIS2_PLACEMENT_3D('',#1387,#1117,#1118);
#892=AXIS2_PLACEMENT_3D('',#1389,#1120,#1121);
#893=AXIS2_PLACEMENT_3D('',#1393,#1124,#1125);
#894=AXIS2_PLACEMENT_3D('',#1395,#1127,#1128);
#895=DIRECTION('axis',(0.,0.,1.));
#896=DIRECTION('refdir',(1.,0.,0.));
#897=DIRECTION('center_axis',(-0.707106781186547,8.65940614742914E-17,0.707106781186548));
#898=DIRECTION('ref_axis',(-0.707106781186548,-8.65956056235493E-17,-0.707106781186547));
#899=DIRECTION('',(0.,-1.,1.22462496157912E-16));
#900=DIRECTION('center_axis',(0.707106781186547,-8.65940614742914E-17,-0.707106781186548));
#901=DIRECTION('ref_axis',(0.707106781186548,8.65956056235493E-17,0.707106781186547));
#902=DIRECTION('',(0.,1.,-1.22462496157912E-16));
#903=DIRECTION('',(-0.577350269189626,0.577350269189626,-0.577350269189625));
#904=DIRECTION('center_axis',(-3.87336203052912E-24,0.707106781186547,0.707106781186548));
#905=DIRECTION('ref_axis',(-1.,-6.70832261665859E-40,-5.47776111555526E-24));
#906=DIRECTION('',(1.,6.70832261665859E-40,5.47776111555526E-24));
#907=DIRECTION('',(0.577350269189619,0.577350269189629,-0.577350269189629));
#908=DIRECTION('',(-1.,-6.70832261665859E-40,-5.47776111555526E-24));
#909=DIRECTION('center_axis',(-5.47776111555526E-24,1.22462496157912E-16,
1.));
#910=DIRECTION('ref_axis',(-1.,-6.70832261665859E-40,-5.47776111555526E-24));
#911=DIRECTION('center_axis',(-5.47776111555526E-24,1.22462496157912E-16,
1.));
#912=DIRECTION('ref_axis',(1.,0.,0.));
#913=DIRECTION('',(-0.707106781186541,-0.707106781186554,8.65940576009301E-17));
#914=DIRECTION('center_axis',(0.,1.22464679914735E-16,1.));
#915=DIRECTION('ref_axis',(1.,0.,0.));
#916=DIRECTION('',(0.,1.22464679914735E-16,1.));
#917=DIRECTION('center_axis',(0.,1.22464679914735E-16,1.));
#918=DIRECTION('ref_axis',(1.,0.,0.));
#919=DIRECTION('',(0.,1.22464679914735E-16,1.));
#920=DIRECTION('center_axis',(-1.,0.,0.));
#921=DIRECTION('ref_axis',(0.,-1.,1.22464679914735E-16));
#922=DIRECTION('',(0.,1.22464679914735E-16,1.));
#923=DIRECTION('',(0.,1.,-1.22464679914735E-16));
#924=DIRECTION('center_axis',(-3.87336203052912E-24,0.707106781186547,0.707106781186548));
#925=DIRECTION('ref_axis',(-1.,-6.70832261665859E-40,-5.47776111555526E-24));
#926=DIRECTION('',(-1.,-6.70832261665859E-40,-5.47776111555526E-24));
#927=DIRECTION('',(0.577350269189622,-0.577350269189628,0.577350269189628));
#928=DIRECTION('',(1.,6.70832261665859E-40,5.47776111555526E-24));
#929=DIRECTION('',(0.577350269189627,0.577350269189626,-0.577350269189625));
#930=DIRECTION('center_axis',(0.707106781186547,4.12762320873673E-16,0.707106781186548));
#931=DIRECTION('ref_axis',(-0.707106781186548,8.65956056235493E-17,0.707106781186547));
#932=DIRECTION('',(4.61271576058232E-16,-1.,1.22462496157912E-16));
#933=DIRECTION('center_axis',(-0.707106781186547,-4.12762320873673E-16,
-0.707106781186548));
#934=DIRECTION('ref_axis',(0.707106781186548,-8.65956056235493E-17,-0.707106781186547));
#935=DIRECTION('',(-4.61271576058232E-16,1.,-1.22462496157912E-16));
#936=DIRECTION('center_axis',(0.,1.,-1.22464679914735E-16));
#937=DIRECTION('ref_axis',(-1.,0.,0.));
#938=DIRECTION('',(0.,1.22464679914735E-16,1.));
#939=DIRECTION('',(1.,0.,0.));
#940=DIRECTION('',(0.,1.22464679914735E-16,1.));
#941=DIRECTION('center_axis',(1.,4.61271576058232E-16,-5.64894759157368E-32));
#942=DIRECTION('ref_axis',(-4.61271576058232E-16,1.,-1.22464679914735E-16));
#943=DIRECTION('',(0.,1.22464679914735E-16,1.));
#944=DIRECTION('',(4.61271576058232E-16,-1.,1.22464679914735E-16));
#945=DIRECTION('center_axis',(0.,1.22464679914735E-16,1.));
#946=DIRECTION('ref_axis',(1.,0.,0.));
#947=DIRECTION('center_axis',(-5.47776111555526E-24,1.22462496157912E-16,
1.));
#948=DIRECTION('ref_axis',(1.,0.,0.));
#949=DIRECTION('',(0.,1.22464679914735E-16,1.));
#950=DIRECTION('center_axis',(0.,1.22464679914735E-16,1.));
#951=DIRECTION('ref_axis',(1.,0.,0.));
#952=DIRECTION('center_axis',(-3.87336203052912E-24,-0.707106781186547,
0.707106781186548));
#953=DIRECTION('ref_axis',(-1.,-6.70832261665859E-40,-5.47776111555526E-24));
#954=DIRECTION('',(-1.,-6.70832261665859E-40,-5.47776111555526E-24));
#955=DIRECTION('',(-2.85562862302467E-16,-0.707106781186548,-0.707106781186547));
#956=DIRECTION('',(1.,6.70832261665859E-40,5.47776111555526E-24));
#957=DIRECTION('',(-0.577350269189626,0.577350269189626,0.577350269189625));
#958=DIRECTION('center_axis',(0.707106781186547,4.12762320873673E-16,0.707106781186548));
#959=DIRECTION('ref_axis',(-0.707106781186548,8.65956056235493E-17,0.707106781186547));
#960=DIRECTION('',(-4.61271576058232E-16,1.,-1.22462496157912E-16));
#961=DIRECTION('center_axis',(-0.707106781186547,-4.12762320873673E-16,
-0.707106781186548));
#962=DIRECTION('ref_axis',(0.707106781186548,-8.65956056235493E-17,-0.707106781186547));
#963=DIRECTION('',(4.61271576058232E-16,-1.,1.22462496157912E-16));
#964=DIRECTION('center_axis',(-5.47776111555526E-24,1.22462496157912E-16,
1.));
#965=DIRECTION('ref_axis',(-1.,-6.70832261665859E-40,-5.47776111555526E-24));
#966=DIRECTION('center_axis',(-5.47776111555526E-24,1.22462496157912E-16,
1.));
#967=DIRECTION('ref_axis',(1.,0.,0.));
#968=DIRECTION('',(4.03846872778229E-16,1.,-1.22462496157912E-16));
#969=DIRECTION('center_axis',(0.,1.22464679914735E-16,1.));
#970=DIRECTION('ref_axis',(1.,0.,0.));
#971=DIRECTION('',(0.,1.22464679914735E-16,1.));
#972=DIRECTION('center_axis',(0.,1.22464679914735E-16,1.));
#973=DIRECTION('ref_axis',(1.,0.,0.));
#974=DIRECTION('',(0.,1.22464679914735E-16,1.));
#975=DIRECTION('center_axis',(-3.87336203052912E-24,-0.707106781186547,
0.707106781186548));
#976=DIRECTION('ref_axis',(-1.,-6.70832261665859E-40,-5.47776111555526E-24));
#977=DIRECTION('',(1.,6.70832261665859E-40,5.47776111555526E-24));
#978=DIRECTION('',(2.85562862302467E-16,0.707106781186548,0.707106781186547));
#979=DIRECTION('',(-1.,-6.70832261665859E-40,-5.47776111555526E-24));
#980=DIRECTION('',(-0.577350269189626,-0.577350269189627,-0.577350269189624));
#981=DIRECTION('center_axis',(-0.707106781186547,8.65940614742914E-17,0.707106781186548));
#982=DIRECTION('ref_axis',(-0.707106781186548,-8.65956056235493E-17,-0.707106781186547));
#983=DIRECTION('',(0.,1.,-1.22462496157912E-16));
#984=DIRECTION('center_axis',(0.707106781186547,-8.65940614742914E-17,-0.707106781186548));
#985=DIRECTION('ref_axis',(0.707106781186548,8.65956056235493E-17,0.707106781186547));
#986=DIRECTION('',(0.,-1.,1.22462496157912E-16));
#987=DIRECTION('center_axis',(0.,-1.,1.22464679914735E-16));
#988=DIRECTION('ref_axis',(1.,0.,0.));
#989=DIRECTION('',(0.,1.22464679914735E-16,1.));
#990=DIRECTION('',(-1.,0.,0.));
#991=DIRECTION('',(0.,1.22464679914735E-16,1.));
#992=DIRECTION('center_axis',(-1.,0.,0.));
#993=DIRECTION('ref_axis',(0.,-1.,1.22464679914735E-16));
#994=DIRECTION('',(0.,1.22464679914735E-16,1.));
#995=DIRECTION('',(0.,1.,-1.22464679914735E-16));
#996=DIRECTION('center_axis',(0.,1.22464679914735E-16,1.));
#997=DIRECTION('ref_axis',(1.,0.,0.));
#998=DIRECTION('center_axis',(-5.47776111555526E-24,1.22462496157912E-16,
1.));
#999=DIRECTION('ref_axis',(1.,0.,0.));
#1000=DIRECTION('',(0.,1.22464679914735E-16,1.));
#1001=DIRECTION('center_axis',(0.,1.22464679914735E-16,1.));
#1002=DIRECTION('ref_axis',(1.,0.,0.));
#1003=DIRECTION('center_axis',(0.,1.22464679914735E-16,1.));
#1004=DIRECTION('ref_axis',(-1.,0.,0.));
#1005=DIRECTION('center_axis',(0.,-1.22464679914735E-16,-1.));
#1006=DIRECTION('ref_axis',(1.,0.,0.));
#1007=DIRECTION('center_axis',(0.,-1.22464679914735E-16,-1.));
#1008=DIRECTION('ref_axis',(1.,0.,0.));
#1009=DIRECTION('center_axis',(0.,-1.22464679914735E-16,-1.));
#1010=DIRECTION('ref_axis',(1.,0.,0.));
#1011=DIRECTION('center_axis',(-1.22464679914735E-16,1.,-1.22464679914735E-16));
#1012=DIRECTION('ref_axis',(1.,1.22464679914735E-16,0.));
#1013=DIRECTION('center_axis',(0.,1.22464679914735E-16,1.));
#1014=DIRECTION('ref_axis',(1.,0.,0.));
#1015=DIRECTION('center_axis',(0.,-1.22464679914735E-16,-1.));
#1016=DIRECTION('ref_axis',(1.,0.,0.));
#1017=DIRECTION('center_axis',(0.,-1.,1.22464679914735E-16));
#1018=DIRECTION('ref_axis',(0.707106781186548,-8.65956056235493E-17,-0.707106781186547));
#1019=DIRECTION('',(0.,1.,-1.22464679914735E-16));
#1020=DIRECTION('center_axis',(0.,-1.,1.22464679914735E-16));
#1021=DIRECTION('ref_axis',(0.,-1.22464679914735E-16,-1.));
#1022=DIRECTION('',(0.,1.,-1.22464679914735E-16));
#1023=DIRECTION('center_axis',(7.40148683083438E-16,1.,-1.22464679914735E-16));
#1024=DIRECTION('ref_axis',(1.,-7.40148683083438E-16,-1.85037170770859E-16));
#1025=DIRECTION('',(0.,1.,-1.22464679914735E-16));
#1026=DIRECTION('center_axis',(0.,-1.22464679914735E-16,-1.));
#1027=DIRECTION('ref_axis',(1.,0.,0.));
#1028=DIRECTION('',(-1.,-3.95537038387943E-16,4.84393168006018E-32));
#1029=DIRECTION('center_axis',(0.,-1.22464679914735E-16,-1.));
#1030=DIRECTION('ref_axis',(1.,0.,0.));
#1031=DIRECTION('',(0.,-1.,1.22464679914735E-16));
#1032=DIRECTION('',(-1.,-3.95537038387943E-16,4.84393168006018E-32));
#1033=DIRECTION('center_axis',(0.,-1.22464679914735E-16,-1.));
#1034=DIRECTION('ref_axis',(1.,0.,0.));
#1035=DIRECTION('',(1.,0.,0.));
#1036=DIRECTION('',(0.,-1.,1.22464679914735E-16));
#1037=DIRECTION('center_axis',(0.,-1.22464679914735E-16,-1.));
#1038=DIRECTION('ref_axis',(1.,0.,0.));
#1039=DIRECTION('',(1.,0.,0.));
#1040=DIRECTION('center_axis',(1.,3.95537038387943E-16,-4.84393168006018E-32));
#1041=DIRECTION('ref_axis',(0.,0.707106781186548,-0.707106781186547));
#1042=DIRECTION('center_axis',(1.,7.40148683083438E-16,-9.06420715631261E-32));
#1043=DIRECTION('ref_axis',(0.,-1.22464679914735E-16,-1.));
#1044=DIRECTION('',(-1.,-3.95537038387943E-16,4.84393168006018E-32));
#1045=DIRECTION('center_axis',(-1.,-7.40148683083437E-16,9.0642071563126E-32));
#1046=DIRECTION('ref_axis',(-7.40148683083437E-16,1.,-3.07501850685595E-16));
#1047=DIRECTION('center_axis',(0.,1.,-1.22464679914735E-16));
#1048=DIRECTION('ref_axis',(-0.707106781186548,-8.65956056235493E-17,-0.707106781186547));
#1049=DIRECTION('center_axis',(0.,1.,-1.22464679914735E-16));
#1050=DIRECTION('ref_axis',(0.,-1.22464679914735E-16,-1.));
#1051=DIRECTION('',(0.,-1.,1.22464679914735E-16));
#1052=DIRECTION('center_axis',(0.,-1.,1.22464679914735E-16));
#1053=DIRECTION('ref_axis',(-1.,-2.26605178907815E-32,-1.85037170770859E-16));
#1054=DIRECTION('center_axis',(-1.,0.,0.));
#1055=DIRECTION('ref_axis',(0.,-0.707106781186548,-0.707106781186547));
#1056=DIRECTION('center_axis',(-1.,0.,0.));
#1057=DIRECTION('ref_axis',(0.,-1.22464679914735E-16,-1.));
#1058=DIRECTION('',(1.,0.,0.));
#1059=DIRECTION('center_axis',(1.,7.40148683083438E-16,-9.06420715631261E-32));
#1060=DIRECTION('ref_axis',(7.40148683083438E-16,-1.,-6.25724908561241E-17));
#1061=DIRECTION('center_axis',(-0.816496580927726,0.408248290463863,0.408248290463862));
#1062=DIRECTION('ref_axis',(-0.577350269189625,-0.577350269189626,-0.577350269189626));
#1063=DIRECTION('center_axis',(0.,-1.22464679914735E-16,-1.));
#1064=DIRECTION('ref_axis',(-0.707106781186546,-0.707106781186549,8.65956056235495E-17));
#1065=DIRECTION('center_axis',(0.408248290463864,-0.408248290463863,0.816496580927726));
#1066=DIRECTION('ref_axis',(0.577350269189626,-0.577350269189625,-0.577350269189626));
#1067=DIRECTION('center_axis',(0.,-1.22464679914735E-16,-1.));
#1068=DIRECTION('ref_axis',(0.707106781186547,-0.707106781186547,8.65956056235493E-17));
#1069=DIRECTION('center_axis',(-0.816496580927727,0.408248290463862,-0.408248290463862));
#1070=DIRECTION('ref_axis',(0.577350269189625,0.577350269189626,-0.577350269189626));
#1071=DIRECTION('center_axis',(0.,-1.22464679914735E-16,-1.));
#1072=DIRECTION('ref_axis',(0.707106781186547,0.707106781186547,-8.65956056235493E-17));
#1073=DIRECTION('center_axis',(0.408248290463863,0.816496580927726,0.408248290463863));
#1074=DIRECTION('ref_axis',(-0.577350269189626,0.577350269189625,-0.577350269189626));
#1075=DIRECTION('center_axis',(0.,-1.22464679914735E-16,-1.));
#1076=DIRECTION('ref_axis',(-0.707106781186549,0.707106781186546,-8.65956056235492E-17));
#1077=DIRECTION('center_axis',(0.,1.22464679914735E-16,1.));
#1078=DIRECTION('ref_axis',(-1.,0.,0.));
#1079=DIRECTION('center_axis',(0.,-1.22464679914735E-16,-1.));
#1080=DIRECTION('ref_axis',(-1.,0.,0.));
#1081=DIRECTION('',(-0.857167300702112,4.18987461261006E-17,-0.515038074910054));
#1082=DIRECTION('center_axis',(0.,-1.22464679914735E-16,-1.));
#1083=DIRECTION('ref_axis',(-1.,0.,0.));
#1084=DIRECTION('center_axis',(5.47776111555526E-24,-1.22462496157912E-16,
-1.));
#1085=DIRECTION('ref_axis',(-1.,0.,0.));
#1086=DIRECTION('',(0.,-1.22464679914735E-16,-1.));
#1087=DIRECTION('center_axis',(0.,1.22464679914735E-16,1.));
#1088=DIRECTION('ref_axis',(-1.,0.,0.));
#1089=DIRECTION('center_axis',(0.,-1.22464679914735E-16,-1.));
#1090=DIRECTION('ref_axis',(-1.,0.,0.));
#1091=DIRECTION('',(-0.857167300702112,4.18987461261006E-17,-0.515038074910054));
#1092=DIRECTION('center_axis',(0.,-1.22464679914735E-16,-1.));
#1093=DIRECTION('ref_axis',(-1.,0.,0.));
#1094=DIRECTION('center_axis',(5.47776111555526E-24,-1.22462496157912E-16,
-1.));
#1095=DIRECTION('ref_axis',(-1.,0.,0.));
#1096=DIRECTION('',(0.,-1.22464679914735E-16,-1.));
#1097=DIRECTION('center_axis',(1.,-4.03846872778229E-16,4.94569780093527E-32));
#1098=DIRECTION('ref_axis',(4.03846872778229E-16,1.,-1.22464679914735E-16));
#1099=DIRECTION('',(-4.03846872778229E-16,-1.,1.22464679914735E-16));
#1100=DIRECTION('',(-4.03846872778229E-16,-1.,1.22462496157912E-16));
#1101=DIRECTION('center_axis',(-5.47776111555526E-24,1.22462496157912E-16,
1.));
#1102=DIRECTION('ref_axis',(-1.,-6.70832261665859E-40,-5.47776111555526E-24));
#1103=DIRECTION('center_axis',(-0.707106781186551,-0.707106781186544,8.65956056235489E-17));
#1104=DIRECTION('ref_axis',(0.707106781186544,-0.707106781186551,8.65956056235498E-17));
#1105=DIRECTION('',(-0.707106781186544,0.707106781186551,-8.65956056235498E-17));
#1106=DIRECTION('',(-0.707106781186544,0.707106781186551,-8.65940653476538E-17));
#1107=DIRECTION('center_axis',(-5.47776111555526E-24,1.22462496157912E-16,
1.));
#1108=DIRECTION('ref_axis',(-1.,-6.70832261665859E-40,-5.47776111555526E-24));
#1109=DIRECTION('center_axis',(1.,4.61271576058232E-16,-5.64894759157368E-32));
#1110=DIRECTION('ref_axis',(-4.61271576058232E-16,1.,-1.22464679914735E-16));
#1111=DIRECTION('',(0.,1.22464679914735E-16,1.));
#1112=DIRECTION('',(4.61271576058232E-16,-1.,1.22464679914735E-16));
#1113=DIRECTION('center_axis',(0.,-1.,1.22464679914735E-16));
#1114=DIRECTION('ref_axis',(1.,0.,0.));
#1115=DIRECTION('',(0.,1.22464679914735E-16,1.));
#1116=DIRECTION('',(-1.,0.,0.));
#1117=DIRECTION('center_axis',(-1.,4.03846872778229E-16,-4.94569780093527E-32));
#1118=DIRECTION('ref_axis',(-4.03846872778229E-16,-1.,1.22464679914735E-16));
#1119=DIRECTION('',(4.03846872778229E-16,1.,-1.22464679914735E-16));
#1120=DIRECTION('center_axis',(0.,1.,-1.22464679914735E-16));
#1121=DIRECTION('ref_axis',(-1.,0.,0.));
#1122=DIRECTION('',(0.,1.22464679914735E-16,1.));
#1123=DIRECTION('',(1.,0.,0.));
#1124=DIRECTION('center_axis',(0.707106781186554,-0.707106781186541,8.65956056235486E-17));
#1125=DIRECTION('ref_axis',(0.707106781186541,0.707106781186554,-8.65956056235501E-17));
#1126=DIRECTION('',(-0.707106781186541,-0.707106781186554,8.65956056235501E-17));
#1127=DIRECTION('center_axis',(0.,-1.22464679914735E-16,-1.));
#1128=DIRECTION('ref_axis',(1.,0.,0.));
#1129=CARTESIAN_POINT('',(0.,0.,0.));
#1130=CARTESIAN_POINT('Origin',(-18.755,9.6275,10.925));
#1131=CARTESIAN_POINT('',(-19.255,19.255,10.425));
#1132=CARTESIAN_POINT('',(-19.255,2.78244496800925,10.425));
#1133=CARTESIAN_POINT('',(-19.255,9.6275,10.425));
#1134=CARTESIAN_POINT('',(-18.255,6.72696068072353,11.425));
#1135=CARTESIAN_POINT('Origin',(4.44089209850063E-15,7.43882746281334E-15,
29.68));
#1136=CARTESIAN_POINT('',(-18.255,18.255,11.425));
#1137=CARTESIAN_POINT('',(-18.255,9.6275,11.425));
#1138=CARTESIAN_POINT('',(-18.255,18.255,11.425));
#1139=CARTESIAN_POINT('Origin',(-4.12926242798433,18.755,10.925));
#1140=CARTESIAN_POINT('',(-9.25852485596865,18.255,11.425));
#1141=CARTESIAN_POINT('',(-4.12926242798433,18.255,11.425));
#1142=CARTESIAN_POINT('',(-8.25852485596866,19.255,10.425));
#1143=CARTESIAN_POINT('',(-8.33222697530983,19.1812978806588,10.4987021193412));
#1144=CARTESIAN_POINT('',(-4.12926242798433,19.255,10.425));
#1145=CARTESIAN_POINT('Origin',(7.7715611723761E-15,2.98278868171954E-15,
11.425));
#1146=CARTESIAN_POINT('',(-13.7567624279843,13.7567624279843,11.425));
#1147=CARTESIAN_POINT('Origin',(4.44089209850063E-15,5.20323473096985E-15,
11.425));
#1148=CARTESIAN_POINT('',(-13.7567624279843,13.7567624279842,11.425));
#1149=CARTESIAN_POINT('Origin',(4.44089209850063E-15,4.17146980268821E-15,
3.));
#1150=CARTESIAN_POINT('',(-19.255,2.78244496800925,3.));
#1151=CARTESIAN_POINT('',(-19.255,2.78244496800925,3.));
#1152=CARTESIAN_POINT('',(-13.7567624279843,13.7567624279843,3.));
#1153=CARTESIAN_POINT('Origin',(4.44089209850063E-15,4.17146980268821E-15,
3.));
#1154=CARTESIAN_POINT('',(-13.7567624279843,13.7567624279843,3.));
#1155=CARTESIAN_POINT('Origin',(-19.255,19.255,3.));
#1156=CARTESIAN_POINT('',(-19.255,19.255,3.));
#1157=CARTESIAN_POINT('',(-19.255,19.255,3.));
#1158=CARTESIAN_POINT('',(-19.255,9.6275,3.));
#1159=CARTESIAN_POINT('Origin',(9.6275,18.755,10.925));
#1160=CARTESIAN_POINT('',(19.255,19.255,10.425));
#1161=CARTESIAN_POINT('',(8.25852485596864,19.255,10.425));
#1162=CARTESIAN_POINT('',(9.6275,19.255,10.425));
#1163=CARTESIAN_POINT('',(9.25852485596863,18.255,11.425));
#1164=CARTESIAN_POINT('',(7.41585404664054,20.0976708093281,9.58232919067188));
#1165=CARTESIAN_POINT('',(18.255,18.255,11.425));
#1166=CARTESIAN_POINT('',(9.6275,18.255,11.425));
#1167=CARTESIAN_POINT('',(18.255,18.255,11.425));
#1168=CARTESIAN_POINT('Origin',(18.755,1.39122248400469,10.925));
#1169=CARTESIAN_POINT('',(18.255,6.72696068072354,11.425));
#1170=CARTESIAN_POINT('',(18.255,1.39122248400469,11.425));
#1171=CARTESIAN_POINT('',(19.255,2.78244496800937,10.425));
#1172=CARTESIAN_POINT('Origin',(4.44089209850063E-15,7.43882746281334E-15,
29.68));
#1173=CARTESIAN_POINT('',(19.255,1.39122248400469,10.425));
#1174=CARTESIAN_POINT('Origin',(19.255,19.255,3.));
#1175=CARTESIAN_POINT('',(19.255,19.255,3.));
#1176=CARTESIAN_POINT('',(19.255,19.255,3.));
#1177=CARTESIAN_POINT('',(8.25852485596864,19.255,3.));
#1178=CARTESIAN_POINT('',(9.62749999999999,19.255,3.));
#1179=CARTESIAN_POINT('',(8.25852485596864,19.255,3.));
#1180=CARTESIAN_POINT('Origin',(19.255,2.78244496800937,3.));
#1181=CARTESIAN_POINT('',(19.255,2.78244496800937,3.));
#1182=CARTESIAN_POINT('',(19.255,2.78244496800937,3.));
#1183=CARTESIAN_POINT('',(19.255,1.39122248400469,3.));
#1184=CARTESIAN_POINT('Origin',(4.44089209850063E-15,4.17146980268821E-15,
3.));
#1185=CARTESIAN_POINT('',(13.7567624279843,13.7567624279843,11.425));
#1186=CARTESIAN_POINT('Origin',(4.44089209850063E-15,5.20323473096985E-15,
11.425));
#1187=CARTESIAN_POINT('',(13.7567624279843,13.7567624279843,3.));
#1188=CARTESIAN_POINT('',(13.7567624279843,13.7567624279843,3.));
#1189=CARTESIAN_POINT('Origin',(4.44089209850063E-15,4.17146980268821E-15,
3.));
#1190=CARTESIAN_POINT('Origin',(6.87838121399215,-18.755,10.925));
#1191=CARTESIAN_POINT('',(18.255,-18.255,11.425));
#1192=CARTESIAN_POINT('',(13.7567624279843,-18.255,11.425));
#1193=CARTESIAN_POINT('',(6.87838121399215,-18.255,11.425));
#1194=CARTESIAN_POINT('',(13.7567624279843,-19.255,10.425));
#1195=CARTESIAN_POINT('',(13.7567624279843,-19.4866906069961,10.1933093930039));
#1196=CARTESIAN_POINT('',(19.255,-19.255,10.425));
#1197=CARTESIAN_POINT('',(6.87838121399215,-19.255,10.425));
#1198=CARTESIAN_POINT('',(19.255,-19.255,10.425));
#1199=CARTESIAN_POINT('Origin',(18.755,-9.62749999999999,10.925));
#1200=CARTESIAN_POINT('',(19.255,-2.7824449680092,10.425));
#1201=CARTESIAN_POINT('',(19.255,-9.62749999999999,10.425));
#1202=CARTESIAN_POINT('',(18.255,-6.72696068072351,11.425));
#1203=CARTESIAN_POINT('Origin',(4.44089209850063E-15,7.43882746281334E-15,
29.68));
#1204=CARTESIAN_POINT('',(18.255,-9.62749999999999,11.425));
#1205=CARTESIAN_POINT('Origin',(7.7715611723761E-15,2.98278868171954E-15,
11.425));
#1206=CARTESIAN_POINT('',(13.7567624279843,-13.7567624279843,11.425));
#1207=CARTESIAN_POINT('Origin',(4.44089209850063E-15,5.20323473096985E-15,
11.425));
#1208=CARTESIAN_POINT('',(13.7567624279843,-6.87838121399214,11.425));
#1209=CARTESIAN_POINT('Origin',(4.44089209850063E-15,4.17146980268821E-15,
3.));
#1210=CARTESIAN_POINT('',(19.255,-2.7824449680092,3.));
#1211=CARTESIAN_POINT('',(19.255,-2.7824449680092,3.));
#1212=CARTESIAN_POINT('',(13.7567624279843,-13.7567624279843,3.));
#1213=CARTESIAN_POINT('Origin',(4.44089209850063E-15,4.17146980268821E-15,
3.));
#1214=CARTESIAN_POINT('',(13.7567624279843,-13.7567624279843,3.));
#1215=CARTESIAN_POINT('Origin',(-9.62749999999999,-18.755,10.925));
#1216=CARTESIAN_POINT('',(-19.255,-19.255,10.425));
#1217=CARTESIAN_POINT('',(-13.7567624279843,-19.255,10.425));
#1218=CARTESIAN_POINT('',(-9.62749999999999,-19.255,10.425));
#1219=CARTESIAN_POINT('',(-13.7567624279843,-18.255,11.425));
#1220=CARTESIAN_POINT('',(-13.7567624279843,-20.86125,8.81875));
#1221=CARTESIAN_POINT('',(-18.255,-18.255,11.425));
#1222=CARTESIAN_POINT('',(-9.62749999999999,-18.255,11.425));
#1223=CARTESIAN_POINT('',(-18.255,-18.255,11.425));
#1224=CARTESIAN_POINT('Origin',(-18.755,-1.39122248400462,10.925));
#1225=CARTESIAN_POINT('',(-18.255,-6.72696068072352,11.425));
#1226=CARTESIAN_POINT('',(-18.255,-1.39122248400462,11.425));
#1227=CARTESIAN_POINT('',(-19.255,-2.78244496800924,10.425));
#1228=CARTESIAN_POINT('Origin',(4.44089209850063E-15,7.43882746281334E-15,
29.68));
#1229=CARTESIAN_POINT('',(-19.255,-1.39122248400462,10.425));
#1230=CARTESIAN_POINT('Origin',(-19.255,-19.255,3.));
#1231=CARTESIAN_POINT('',(-19.255,-19.255,3.));
#1232=CARTESIAN_POINT('',(-19.255,-19.255,3.));
#1233=CARTESIAN_POINT('',(-13.7567624279843,-19.255,3.));
#1234=CARTESIAN_POINT('',(-9.6275,-19.255,3.));
#1235=CARTESIAN_POINT('',(-13.7567624279843,-19.255,3.));
#1236=CARTESIAN_POINT('Origin',(-19.255,-2.78244496800924,3.));
#1237=CARTESIAN_POINT('',(-19.255,-2.78244496800924,3.));
#1238=CARTESIAN_POINT('',(-19.255,-2.78244496800924,3.));
#1239=CARTESIAN_POINT('',(-19.255,-1.39122248400462,3.));
#1240=CARTESIAN_POINT('Origin',(4.44089209850063E-15,4.17146980268821E-15,
3.));
#1241=CARTESIAN_POINT('',(-13.7567624279843,-13.7567624279843,11.425));
#1242=CARTESIAN_POINT('Origin',(4.44089209850063E-15,5.20323473096985E-15,
11.425));
#1243=CARTESIAN_POINT('',(-13.7567624279843,-13.7567624279843,3.));
#1244=CARTESIAN_POINT('',(-13.7567624279843,-13.7567624279843,3.));
#1245=CARTESIAN_POINT('Origin',(4.44089209850063E-15,4.17146980268821E-15,
3.));
#1246=CARTESIAN_POINT('Origin',(4.44089209850063E-15,4.17146980268821E-15,
3.));
#1247=CARTESIAN_POINT('',(3.09725281499588,-19.455,0.));
#1248=CARTESIAN_POINT('',(-3.09725281499587,-19.455,0.));
#1249=CARTESIAN_POINT('Ctrl Pts',(3.09725281499935,-19.4549999999994,0.));
#1250=CARTESIAN_POINT('Ctrl Pts',(3.08442373240366,-19.4560148106796,0.));
#1251=CARTESIAN_POINT('Ctrl Pts',(3.071594156487,-19.4570233552358,5.14901121739797E-7));
#1252=CARTESIAN_POINT('Ctrl Pts',(2.04201794057294,-19.5374532046889,8.16319872609661E-5));
#1253=CARTESIAN_POINT('Ctrl Pts',(1.02164159854337,-19.5775,0.00250208507161731));
#1254=CARTESIAN_POINT('Ctrl Pts',(-1.02164159935282,-19.5775,0.00250208507161731));
#1255=CARTESIAN_POINT('Ctrl Pts',(-2.04201794476509,-19.5374532043647,8.16319869312299E-5));
#1256=CARTESIAN_POINT('Ctrl Pts',(-3.07159416749777,-19.4570233543755,5.14900254655615E-7));
#1257=CARTESIAN_POINT('Ctrl Pts',(-3.08442372139008,-19.4560148115288,7.77156117237609E-15));
#1258=CARTESIAN_POINT('Ctrl Pts',(-3.09725281499588,-19.4549999999777,0.));
#1259=CARTESIAN_POINT('',(-19.455,-3.09725281499587,-2.22044604925031E-15));
#1260=CARTESIAN_POINT('Origin',(4.44089209850063E-15,3.804075762944E-15,
-2.22044604925031E-15));
#1261=CARTESIAN_POINT('',(-19.455,3.09725281499588,-2.22044604925031E-15));
#1262=CARTESIAN_POINT('Ctrl Pts',(-19.455,-3.09725281499586,-2.22044604925031E-15));
#1263=CARTESIAN_POINT('Ctrl Pts',(-19.4560148106696,-3.08442373253468,-2.22044604925031E-15));
#1264=CARTESIAN_POINT('Ctrl Pts',(-19.4570233552463,-3.07159415635245,5.14901130621581E-7));
#1265=CARTESIAN_POINT('Ctrl Pts',(-19.5374532047121,-2.04201794027324,8.16319872820603E-5));
#1266=CARTESIAN_POINT('Ctrl Pts',(-19.5775,-1.02164159848505,0.00250208507161509));
#1267=CARTESIAN_POINT('Ctrl Pts',(-19.5775,1.02164159847052,0.00250208507161509));
#1268=CARTESIAN_POINT('Ctrl Pts',(-19.5374532047179,2.04201794019868,8.16319872887217E-5));
#1269=CARTESIAN_POINT('Ctrl Pts',(-19.4570233552532,3.07159415626479,5.14901137282919E-7));
#1270=CARTESIAN_POINT('Ctrl Pts',(-19.4560148106628,3.08442373262238,-2.22044604925031E-15));
#1271=CARTESIAN_POINT('Ctrl Pts',(-19.4550000000002,3.0972528149959,-2.22044604925031E-15));
#1272=CARTESIAN_POINT('',(-3.09725281499597,19.455,-4.44089209850063E-15));
#1273=CARTESIAN_POINT('Origin',(4.44089209850063E-15,3.804075762944E-15,
-2.22044604925031E-15));
#1274=CARTESIAN_POINT('',(3.09725281499596,19.455,-4.44089209850063E-15));
#1275=CARTESIAN_POINT('Ctrl Pts',(-3.09725281499597,19.455,-4.44089209850063E-15));
#1276=CARTESIAN_POINT('Ctrl Pts',(-3.08442373253896,19.4560148106692,-4.44089209850063E-15));
#1277=CARTESIAN_POINT('Ctrl Pts',(-3.07159415634837,19.4570233552467,5.14901128401135E-7));
#1278=CARTESIAN_POINT('Ctrl Pts',(-2.0420179403688,19.5374532047047,8.16319872731786E-5));
#1279=CARTESIAN_POINT('Ctrl Pts',(-1.02164159850422,19.5775,0.00250208507161398));
#1280=CARTESIAN_POINT('Ctrl Pts',(1.02164159847917,19.5775,0.00250208507161398));
#1281=CARTESIAN_POINT('Ctrl Pts',(2.04201794024272,19.5374532047145,8.16319872820603E-5));
#1282=CARTESIAN_POINT('Ctrl Pts',(3.07159415633544,19.4570233552477,5.14901129511358E-7));
#1283=CARTESIAN_POINT('Ctrl Pts',(3.0844237325519,19.4560148106682,-4.44089209850063E-15));
#1284=CARTESIAN_POINT('Ctrl Pts',(3.09725281499596,19.455,-4.44089209850063E-15));
#1285=CARTESIAN_POINT('',(19.455,3.09725281499597,-2.22044604925031E-15));
#1286=CARTESIAN_POINT('Origin',(4.44089209850063E-15,3.804075762944E-15,
-2.22044604925031E-15));
#1287=CARTESIAN_POINT('',(19.5775,6.15408054323025E-15,0.00250208507161592));
#1288=CARTESIAN_POINT('Ctrl Pts',(19.455,3.09725281499597,-2.22044604925031E-15));
#1289=CARTESIAN_POINT('Ctrl Pts',(19.4560148106696,3.08442373253474,-2.22044604925031E-15));
#1290=CARTESIAN_POINT('Ctrl Pts',(19.4570233552463,3.07159415635258,5.14901129511358E-7));
#1291=CARTESIAN_POINT('Ctrl Pts',(19.5374532047123,2.04201794027079,8.16319872831706E-5));
#1292=CARTESIAN_POINT('Ctrl Pts',(19.5775,1.02164159848459,0.00250208507161579));
#1293=CARTESIAN_POINT('Ctrl Pts',(19.5775,6.10622663543836E-15,0.00250208507161592));
#1294=CARTESIAN_POINT('',(16.7,6.21662995726429E-15,3.));
#1295=CARTESIAN_POINT('Origin',(19.7,6.58402399700849E-15,3.));
#1296=CARTESIAN_POINT('Origin',(4.44089209850063E-15,4.17146980268821E-15,
3.));
#1297=CARTESIAN_POINT('',(19.455,-3.09725281499596,-2.22044604925031E-15));
#1298=CARTESIAN_POINT('Ctrl Pts',(19.5775,6.10622663543836E-15,0.00250208507161592));
#1299=CARTESIAN_POINT('Ctrl Pts',(19.5775,-1.02164159848455,0.00250208507161605));
#1300=CARTESIAN_POINT('Ctrl Pts',(19.5374532047123,-2.04201794027063,8.16319872831706E-5));
#1301=CARTESIAN_POINT('Ctrl Pts',(19.4570233552463,-3.07159415635275,5.14901129511358E-7));
#1302=CARTESIAN_POINT('Ctrl Pts',(19.4560148106696,-3.08442373253456,-2.22044604925031E-15));
#1303=CARTESIAN_POINT('Ctrl Pts',(19.455,-3.09725281499597,-2.22044604925031E-15));
#1304=CARTESIAN_POINT('Origin',(4.44089209850063E-15,3.804075762944E-15,
-2.22044604925031E-15));
#1305=CARTESIAN_POINT('Origin',(19.455,11.2275,3.));
#1306=CARTESIAN_POINT('',(19.455,19.455,-4.44089209850063E-15));
#1307=CARTESIAN_POINT('',(19.455,11.2275,-3.33066907387547E-15));
#1308=CARTESIAN_POINT('',(22.455,19.455,2.99999999999999));
#1309=CARTESIAN_POINT('Origin',(19.455,19.455,3.));
#1310=CARTESIAN_POINT('',(22.455,-19.455,3.));
#1311=CARTESIAN_POINT('',(22.455,-22.455,3.));
#1312=CARTESIAN_POINT('',(19.455,-19.455,0.));
#1313=CARTESIAN_POINT('Origin',(19.455,-19.455,3.));
#1314=CARTESIAN_POINT('',(19.455,11.2275,-3.33066907387547E-15));
#1315=CARTESIAN_POINT('Origin',(-4.44089209850063E-15,3.804075762944E-15,
-2.22044604925031E-15));
#1316=CARTESIAN_POINT('',(-11.2275,19.455,-4.44089209850063E-15));
#1317=CARTESIAN_POINT('Origin',(-4.44089209850063E-15,3.804075762944E-15,
-2.22044604925031E-15));
#1318=CARTESIAN_POINT('',(-19.455,19.455,-4.44089209850063E-15));
#1319=CARTESIAN_POINT('',(-19.455,-11.2275,-1.11022302462516E-15));
#1320=CARTESIAN_POINT('',(-11.2275,19.455,-4.44089209850063E-15));
#1321=CARTESIAN_POINT('Origin',(-4.44089209850063E-15,3.804075762944E-15,
-2.22044604925031E-15));
#1322=CARTESIAN_POINT('',(-19.455,-19.455,0.));
#1323=CARTESIAN_POINT('',(11.2275,-19.455,0.));
#1324=CARTESIAN_POINT('',(-19.455,-11.2275,-1.11022302462516E-15));
#1325=CARTESIAN_POINT('Origin',(-4.44089209850063E-15,3.804075762944E-15,
-2.22044604925031E-15));
#1326=CARTESIAN_POINT('',(11.2275,-19.455,0.));
#1327=CARTESIAN_POINT('Origin',(-11.2275,19.455,3.));
#1328=CARTESIAN_POINT('',(-19.455,22.455,2.99999999999999));
#1329=CARTESIAN_POINT('Origin',(-19.455,19.455,3.));
#1330=CARTESIAN_POINT('',(19.455,22.455,2.99999999999999));
#1331=CARTESIAN_POINT('',(22.455,22.455,2.99999999999999));
#1332=CARTESIAN_POINT('Origin',(19.455,19.455,3.));
#1333=CARTESIAN_POINT('Origin',(-19.455,-11.2275,3.));
#1334=CARTESIAN_POINT('',(-22.455,-19.455,3.));
#1335=CARTESIAN_POINT('Origin',(-19.455,-19.455,3.));
#1336=CARTESIAN_POINT('',(-22.455,19.455,2.99999999999999));
#1337=CARTESIAN_POINT('',(-22.455,22.455,2.99999999999999));
#1338=CARTESIAN_POINT('Origin',(-19.455,19.455,3.));
#1339=CARTESIAN_POINT('Origin',(11.2275,-19.455,3.));
#1340=CARTESIAN_POINT('',(19.455,-22.455,3.));
#1341=CARTESIAN_POINT('Origin',(19.455,-19.455,3.));
#1342=CARTESIAN_POINT('',(-19.455,-22.455,3.));
#1343=CARTESIAN_POINT('',(-22.455,-22.455,3.));
#1344=CARTESIAN_POINT('Origin',(-19.455,-19.455,3.));
#1345=CARTESIAN_POINT('Origin',(-19.455,-19.455,3.));
#1346=CARTESIAN_POINT('Origin',(-19.455,-19.455,3.));
#1347=CARTESIAN_POINT('Origin',(19.455,-19.455,3.));
#1348=CARTESIAN_POINT('Origin',(19.455,-19.455,3.));
#1349=CARTESIAN_POINT('Origin',(19.455,19.455,3.));
#1350=CARTESIAN_POINT('Origin',(19.455,19.455,2.99999999999999));
#1351=CARTESIAN_POINT('Origin',(-19.455,19.455,3.));
#1352=CARTESIAN_POINT('Origin',(-19.455,19.455,2.99999999999999));
#1353=CARTESIAN_POINT('Origin',(16.455,16.455,7.82950514405915));
#1354=CARTESIAN_POINT('',(17.605,16.455,8.175));
#1355=CARTESIAN_POINT('Origin',(16.455,16.455,8.175));
#1356=CARTESIAN_POINT('',(16.455,16.455,7.4840102881183));
#1357=CARTESIAN_POINT('',(17.03,16.455,7.82950514405915));
#1358=CARTESIAN_POINT('Origin',(16.455,16.455,11.675));
#1359=CARTESIAN_POINT('',(17.605,16.455,11.425));
#1360=CARTESIAN_POINT('Origin',(16.455,16.455,11.425));
#1361=CARTESIAN_POINT('',(17.605,16.455,11.675));
#1362=CARTESIAN_POINT('Origin',(-16.455,-16.455,7.82950514405915));
#1363=CARTESIAN_POINT('',(-15.305,-16.455,8.175));
#1364=CARTESIAN_POINT('Origin',(-16.455,-16.455,8.175));
#1365=CARTESIAN_POINT('',(-16.455,-16.455,7.48401028811831));
#1366=CARTESIAN_POINT('',(-15.88,-16.455,7.82950514405915));
#1367=CARTESIAN_POINT('Origin',(-16.455,-16.455,11.675));
#1368=CARTESIAN_POINT('',(-15.305,-16.455,11.425));
#1369=CARTESIAN_POINT('Origin',(-16.455,-16.455,11.425));
#1370=CARTESIAN_POINT('',(-15.305,-16.455,11.675));
#1371=CARTESIAN_POINT('Origin',(-13.7567624279843,-19.255,3.));
#1372=CARTESIAN_POINT('',(-13.7567624279843,-9.62749999999999,3.));
#1373=CARTESIAN_POINT('',(-13.7567624279843,-9.62749999999999,11.425));
#1374=CARTESIAN_POINT('Origin',(7.7715611723761E-15,2.98278868171954E-15,
11.425));
#1375=CARTESIAN_POINT('Origin',(8.25852485596864,19.255,3.));
#1376=CARTESIAN_POINT('',(11.0076436419765,16.5058812139921,3.));
#1377=CARTESIAN_POINT('',(11.0076436419765,16.5058812139921,11.425));
#1378=CARTESIAN_POINT('Origin',(7.7715611723761E-15,2.98278868171954E-15,
11.425));
#1379=CARTESIAN_POINT('Origin',(19.255,-19.255,3.));
#1380=CARTESIAN_POINT('',(19.255,-19.255,3.));
#1381=CARTESIAN_POINT('',(19.255,-19.255,3.));
#1382=CARTESIAN_POINT('',(19.255,-9.62749999999999,3.));
#1383=CARTESIAN_POINT('Origin',(13.7567624279843,-19.255,3.));
#1384=CARTESIAN_POINT('',(13.7567624279843,-19.255,3.));
#1385=CARTESIAN_POINT('',(13.7567624279843,-19.255,3.));
#1386=CARTESIAN_POINT('',(6.87838121399214,-19.255,3.));
#1387=CARTESIAN_POINT('Origin',(13.7567624279843,-13.7567624279843,3.));
#1388=CARTESIAN_POINT('',(13.7567624279843,-6.87838121399214,3.));
#1389=CARTESIAN_POINT('Origin',(-8.25852485596866,19.255,3.));
#1390=CARTESIAN_POINT('',(-8.25852485596866,19.255,3.));
#1391=CARTESIAN_POINT('',(-8.25852485596866,19.255,3.));
#1392=CARTESIAN_POINT('',(-4.12926242798433,19.255,3.));
#1393=CARTESIAN_POINT('Origin',(-13.7567624279843,13.7567624279843,3.));
#1394=CARTESIAN_POINT('',(-13.7567624279843,13.7567624279842,3.));
#1395=CARTESIAN_POINT('Origin',(-4.44089209850063E-15,4.17146980268821E-15,
3.));
#1396=UNCERTAINTY_MEASURE_WITH_UNIT(LENGTH_MEASURE(0.01),#1400,
'DISTANCE_ACCURACY_VALUE',
'Maximum model space distance between geometric entities at asserted c
onnectivities');
#1397=UNCERTAINTY_MEASURE_WITH_UNIT(LENGTH_MEASURE(0.01),#1400,
'DISTANCE_ACCURACY_VALUE',
'Maximum model space distance between geometric entities at asserted c
onnectivities');
#1398=(
GEOMETRIC_REPRESENTATION_CONTEXT(3)
GLOBAL_UNCERTAINTY_ASSIGNED_CONTEXT((#1396))
GLOBAL_UNIT_ASSIGNED_CONTEXT((#1400,#1402,#1403))
REPRESENTATION_CONTEXT('','3D')
);
#1399=(
GEOMETRIC_REPRESENTATION_CONTEXT(3)
GLOBAL_UNCERTAINTY_ASSIGNED_CONTEXT((#1397))
GLOBAL_UNIT_ASSIGNED_CONTEXT((#1400,#1402,#1403))
REPRESENTATION_CONTEXT('','3D')
);
#1400=(
LENGTH_UNIT()
NAMED_UNIT(*)
SI_UNIT(.MILLI.,.METRE.)
);
#1401=(
LENGTH_UNIT()
NAMED_UNIT(*)
SI_UNIT($,.METRE.)
);
#1402=(
NAMED_UNIT(*)
PLANE_ANGLE_UNIT()
SI_UNIT($,.RADIAN.)
);
#1403=(
NAMED_UNIT(*)
SI_UNIT($,.STERADIAN.)
SOLID_ANGLE_UNIT()
);
#1404=SHAPE_DEFINITION_REPRESENTATION(#1405,#1406);
#1405=PRODUCT_DEFINITION_SHAPE('',$,#1408);
#1406=SHAPE_REPRESENTATION('',(#814),#1398);
#1407=PRODUCT_DEFINITION_CONTEXT('part definition',#1412,'design');
#1408=PRODUCT_DEFINITION('Face','Face',#1409,#1407);
#1409=PRODUCT_DEFINITION_FORMATION('',$,#1414);
#1410=PRODUCT_RELATED_PRODUCT_CATEGORY('Face','Face',(#1414));
#1411=APPLICATION_PROTOCOL_DEFINITION('international standard',
'automotive_design',2009,#1412);
#1412=APPLICATION_CONTEXT(
'Core Data for Automotive Mechanical Design Process');
#1413=PRODUCT_CONTEXT('part definition',#1412,'mechanical');
#1414=PRODUCT('Face','Face',$,(#1413));
#1415=PRESENTATION_STYLE_ASSIGNMENT((#1416));
#1416=SURFACE_STYLE_USAGE(.BOTH.,#1417);
#1417=SURFACE_SIDE_STYLE('',(#1418));
#1418=SURFACE_STYLE_FILL_AREA(#1419);
#1419=FILL_AREA_STYLE('Steel - Satin',(#1420));
#1420=FILL_AREA_STYLE_COLOUR('Steel - Satin',#1421);
#1421=COLOUR_RGB('Steel - Satin',0.627450980392157,0.627450980392157,0.627450980392157);
ENDSEC;
END-ISO-10303-21;
